<svg width="592" height="154" viewBox="0 0 592 154" fill="none" xmlns="http://www.w3.org/2000/svg">
    <g clip-path="url(#clip0_109_42)">
        <path fill-rule="evenodd" clip-rule="evenodd"
            d="M53.5693 82.6638H31.8703L43.3979 45.1653L53.5693 82.6638ZM21.699 120.569L28.4799 97.7175H56.2817L63.0626 120.569H86.1178L61.7064 33.8412C60.3502 28.1452 57.6379 26.3143 51.535 26.3143H17.6304V34.1124H20.3428C24.4113 34.1124 26.4456 35.4008 26.4456 38.52C26.4456 40.4865 26.4456 41.7748 24.4113 46.4537L0 120.569"
            fill="#0067A0" />
        <path
            d="M115.276 120.569V33.2309C115.276 28.6877 112.563 26.3143 107.817 26.3143H86.7958V34.1124H88.152C92.2206 34.1124 94.2549 35.8076 94.2549 39.4693V120.569"
            fill="#0067A0" />
        <path
            d="M153.249 120.569V33.2309C153.249 28.6877 150.537 26.3143 145.79 26.3143H124.769V34.1124H126.125C130.194 34.1124 132.228 35.8076 132.228 39.4693V120.569"
            fill="#0067A0" />
        <path fill-rule="evenodd" clip-rule="evenodd"
            d="M191.9 34.6549C191.9 28.4165 187.154 24.7548 179.695 24.7548C171.557 24.7548 167.489 28.4165 167.489 34.6549C167.489 41.029 171.557 44.7585 179.695 44.7585C187.154 44.7585 191.9 41.029 191.9 34.6549ZM191.222 120.569V56.9642C191.222 52.5566 188.51 49.9798 184.441 49.9798H163.42V57.6423H164.777C168.845 57.6423 170.201 59.3375 170.201 63.2026V120.569"
            fill="#0067A0" />
        <path fill-rule="evenodd" clip-rule="evenodd"
            d="M241.401 86.3255V100.43C237.332 104.498 232.586 106.804 228.517 106.804C224.449 106.804 222.414 104.837 222.414 99.5483C222.414 93.7167 223.771 91.479 228.517 89.6481C231.908 88.2242 235.298 87.3426 241.401 86.3255ZM211.565 69.441L213.599 68.6273C219.024 66.4574 222.414 65.6437 226.483 64.8978C228.517 64.6265 231.23 64.3553 232.586 64.3553C239.367 64.3553 241.401 66.593 241.401 72.8314V74.5945C231.908 76.1541 229.195 76.6966 223.771 77.8493C221.058 78.5274 218.346 79.4089 215.633 80.5617C206.818 84.0878 202.75 90.8687 202.75 101.515C202.75 114.873 208.174 121.247 220.38 121.247C225.127 121.247 229.873 120.162 233.264 117.992C236.654 116.433 238.011 115.619 242.079 111.89V114.059C242.079 118.467 244.113 120.569 248.182 120.569H268.525V113.314H267.847C263.778 113.314 261.744 111.483 261.744 107.821V73.1705C261.744 55.1332 255.641 49.0304 238.01 49.0304C231.908 49.0304 226.483 49.7085 221.058 50.9969C215.633 52.2852 212.921 53.2346 206.818 56.4216"
            fill="#0067A0" />
        <path fill-rule="evenodd" clip-rule="evenodd"
            d="M300.395 120.569V72.6958C305.142 68.2882 308.532 66.593 313.279 66.593C318.025 66.593 319.382 68.6273 319.382 75.815V120.569H340.403V72.4246C340.403 62.5244 339.046 58.2524 336.334 54.5229C332.944 50.8612 328.875 49.166 322.772 49.166C314.635 49.166 308.532 52.1496 299.039 60.3545V56.5572C299.039 52.1496 297.005 49.9797 292.936 49.9797H272.593V57.6422H273.271C277.34 57.6422 279.374 59.3374 279.374 63.2025V120.569"
            fill="#0067A0" />
        <mask id="mask0_109_42" style="mask-type:luminance" maskUnits="userSpaceOnUse" x="0" y="-1"
            width="592" height="155">
            <path d="M0.00305176 -0.000279701H591.978V153.249H0.00305176V-0.000279701Z" fill="white" />
        </mask>
        <g mask="url(#mask0_109_42)">
            <path
                d="M405.503 107.071H374.311L404.147 64.4864V49.9752H359.393C353.968 49.9752 351.934 52.1452 351.934 57.3665V70.1826H359.393V68.7584C359.393 64.8933 361.427 63.3338 365.496 63.3338H381.77L351.256 105.918V120.565H405.503"
                fill="#0067A0" />
            <path fill-rule="evenodd" clip-rule="evenodd"
                d="M525.525 116.7V36.8201C525.525 30.3782 522.813 28.2761 516.71 28.2761H498.401V37.0916H500.436C503.826 37.0916 505.182 38.3797 505.182 42.3126V116.7H525.525ZM536.374 116.7H556.039V56.4171C556.039 50.3142 553.327 47.873 547.224 47.873H536.374V116.7ZM494.333 116.7V47.873H483.484C477.381 47.873 474.668 50.3142 474.668 56.4171V116.7H494.333ZM579.094 76.5566C579.094 113.92 551.971 141.179 515.354 141.179C478.737 141.179 451.613 113.92 451.613 76.5566C451.613 39.1937 478.737 11.9342 515.354 11.9342C551.971 11.9342 579.094 39.1937 579.094 76.5566ZM591.978 76.5566C591.978 32.8197 559.43 -0.000279701 515.354 -0.000279701C471.956 -0.000279701 438.73 32.8197 438.73 76.5566C438.73 120.429 471.956 153.249 515.354 153.249C559.43 153.249 591.978 120.429 591.978 76.5566Z"
                fill="#0067A0" />
        </g>
    </g>
    <defs>
        <clipPath id="clip0_109_42">
            <rect width="591.978" height="153.249" fill="white" />
        </clipPath>
    </defs>
</svg>
    