<svg width="295" height="180" viewBox="0 0 295 180" fill="none" xmlns="http://www.w3.org/2000/svg">
  <g clip-path="url(#clip0_15_107)">
  <path d="M88.4065 167.027L90.925 162.18C93.286 163.773 97.0187 164.895 100.392 164.895C104.484 164.895 106.126 163.773 106.126 161.888C106.126 156.681 89.216 161.574 89.216 150.688C89.216 145.526 93.8707 142.16 101.246 142.16C104.889 142.16 109.026 143.035 111.5 144.516L109.049 149.364C106.485 147.838 103.832 147.322 101.269 147.322C97.3335 147.322 95.4897 148.601 95.4897 150.397C95.4897 155.918 112.399 151.003 112.399 161.686C112.399 166.803 107.677 170.125 100.054 170.125C95.4222 170.102 90.8575 168.778 88.4065 167.027ZM144.284 158.14H122.81C123.575 162.135 126.903 164.693 131.67 164.693C134.75 164.693 137.156 163.728 139.09 161.731L142.531 165.658C140.08 168.576 136.234 170.102 131.512 170.102C122.338 170.102 116.402 164.222 116.402 156.097C116.402 147.973 122.406 142.137 130.545 142.137C138.528 142.137 144.374 147.703 144.374 156.254C144.397 156.748 144.352 157.511 144.284 158.14ZM122.788 153.898H138.303C137.786 149.97 134.773 147.254 130.568 147.254C126.408 147.254 123.395 149.903 122.788 153.898ZM172.325 142.429H178.418V165.591C178.418 175.511 173.247 180 163.667 180C158.541 180 153.481 178.676 150.356 176.117L153.234 171.314C155.64 173.312 159.53 174.591 163.33 174.591C169.379 174.591 172.032 171.83 172.032 166.309V164.873C169.784 167.319 166.546 168.509 162.858 168.509C155.033 168.509 149.029 163.19 149.029 155.267C149.029 147.344 155.033 142.137 162.858 142.137C166.703 142.137 170.076 143.372 172.325 146.065V142.429ZM172.1 155.267C172.1 150.666 168.614 147.546 163.802 147.546C158.945 147.546 155.46 150.666 155.46 155.267C155.46 159.913 158.945 163.1 163.802 163.1C168.637 163.1 172.1 159.935 172.1 155.267ZM185.479 156.748V142.429H191.888V156.748C191.888 161.91 194.766 164.626 198.858 164.626C202.951 164.626 205.829 162.022 205.829 156.748V142.429H212.215V156.748C212.215 165.905 206.324 170.102 198.836 170.102C191.37 170.102 185.479 165.703 185.479 156.748ZM225.324 146.424C227.168 143.551 230.496 142.137 235.016 142.137V148.219C234.499 148.107 234.049 148.062 233.577 148.062C228.72 148.062 225.639 150.935 225.639 156.501V169.743H219.231V142.429H225.324V146.424ZM237.939 156.097C237.939 147.905 244.078 142.137 252.488 142.137C260.987 142.137 267.081 147.905 267.081 156.097C267.081 164.289 260.987 170.102 252.488 170.102C244.078 170.102 237.939 164.267 237.939 156.097ZM260.627 156.097C260.627 150.89 257.142 147.569 252.488 147.569C247.878 147.569 244.393 150.89 244.393 156.097C244.393 161.304 247.878 164.626 252.488 164.626C257.142 164.626 260.627 161.304 260.627 156.097ZM270.724 167.027L273.242 162.18C275.603 163.773 279.336 164.895 282.709 164.895C286.801 164.895 288.443 163.773 288.443 161.888C288.443 156.681 271.533 161.574 271.533 150.688C271.533 145.526 276.188 142.16 283.563 142.16C287.206 142.16 291.343 143.035 293.817 144.516L291.366 149.364C288.803 147.838 286.149 147.322 283.586 147.322C279.651 147.322 277.807 148.601 277.807 150.397C277.807 155.918 294.716 151.003 294.716 161.686C294.716 166.803 289.994 170.125 282.372 170.125C277.739 170.102 273.175 168.778 270.724 167.027ZM233.554 24.5087C230.631 24.5087 228.787 26.3491 228.787 29.2668V77.3641C228.787 90.3591 222.559 95.6559 213.384 95.6559C203.85 95.6559 197.801 90.5387 197.801 77.3641V29.2668C197.801 26.3491 196.16 24.5087 193.034 24.5087H176.732C173.809 24.5087 171.965 26.3491 171.965 29.2668V78.4638C171.965 105.172 190.111 117.606 213.204 117.606C237.017 117.606 254.624 104.431 254.624 78.4638V29.2668C254.624 26.3491 252.982 24.5087 249.857 24.5087H233.554ZM116.087 96.5761L158.248 45.9202C159.71 44.1022 160.452 42.4414 160.452 40.0623V29.2668C160.452 26.3491 158.81 24.5087 155.685 24.5087H93.7358C90.8126 24.5087 88.9687 26.3491 88.9687 29.2668V39.1421C88.9687 42.0598 90.8126 43.9002 93.7358 43.9002H132.03L89.8906 94.5786C88.429 96.419 87.687 98.0574 87.687 100.436V111.232C87.687 114.15 89.3285 115.99 92.454 115.99H157.326C160.25 115.99 162.093 114.15 162.093 111.232V101.357C162.093 98.4389 160.452 96.5985 157.326 96.5985H116.087V96.5761ZM39.4993 22.8703C20.2512 22.8703 5.97257 32.9252 3.02689 49.7581C2.48723 52.8778 4.3086 54.6958 7.43417 54.6958H19.8915C22.6348 54.6958 24.2987 53.2369 25.0183 50.4988C26.6598 45.7407 30.5274 42.4414 38.3975 42.4414C47.7517 42.4414 51.7767 48.4788 51.7767 57.4339V111.209C51.7767 114.127 53.6206 115.968 56.5438 115.968H71.7444C74.6675 115.968 76.5114 114.127 76.5114 111.209V57.0748C76.5114 38.4239 63.3121 22.8703 39.4993 22.8703ZM273.31 0C270.386 0 268.543 1.6384 268.543 4.7581V111.209C268.543 114.127 270.386 115.968 273.31 115.968H289.612C292.535 115.968 294.379 114.329 294.379 111.209V4.7581C294.379 1.8404 292.738 0 289.612 0H273.31Z" fill="#0067A0"/>
  <path d="M27.7616 117.426C31.9665 117.426 35.4518 116.888 38.7573 115.586C42.0627 114.307 43.5243 112.287 44.2664 109.01L45.728 102.613C46.2901 100.414 45.1883 99.5162 42.9846 100.055C40.781 100.414 38.2176 100.593 35.8341 100.593C27.042 100.593 23.3768 96.3965 23.3768 90.8977C23.3768 79.9226 39.6792 71.1471 86.7875 65.2892C89.5308 64.9301 89.351 61.8104 86.7875 61.8104C30.1676 62.1695 0.306066 73.5037 0.306066 94.3765C0.28358 107.551 10.9195 117.426 27.7616 117.426Z" fill="#0098EC"/>
  </g>
  <defs>
  <clipPath id="clip0_15_107">
  <rect width="295" height="180" fill="white"/>
  </clipPath>
  </defs>
  </svg>
  