<svg width="539" height="207" viewBox="0 0 539 207" fill="none" xmlns="http://www.w3.org/2000/svg">
    <g clip-path="url(#clip0_111_2)">
        <path
            d="M324.72 53.1679V65.837C322.253 65.237 319.717 64.967 317.179 65.033C301.238 65.033 290.454 75.735 290.454 92.757C290.454 109.779 301.017 119.815 317.512 119.815C324.847 119.893 332.147 118.797 339.136 116.571V41.524C334.818 43.014 330.765 45.1859 327.132 47.9559C325.47 49.1519 324.547 51.1249 324.692 53.1679M324.692 107.34C322.695 107.925 320.619 108.196 318.538 108.144C309.001 108.144 305.286 101.878 305.286 92.8119C305.286 82.6929 309.001 76.5389 318.427 76.5389C320.543 76.5169 322.651 76.7859 324.692 77.3429V107.34ZM260.235 64.8119C254.989 64.7039 249.751 65.281 244.655 66.531C243.796 70.28 243.796 74.1749 244.655 77.9249C248.964 76.8729 253.388 76.3699 257.823 76.4279C265.253 76.4279 268.913 79.45 268.913 85.604V86.186C266.695 85.937 264.033 85.7149 262.176 85.7149C249.867 85.7149 239.276 90.1229 239.276 101.989C239.276 115.352 248.813 119.871 262.647 119.871C269.473 119.816 276.255 118.761 282.775 116.738V86.658C282.775 72.242 274.984 65.1439 260.235 64.8119ZM268.913 108.06C266.88 108.42 264.822 108.615 262.758 108.643C256.132 108.643 252.528 106.674 252.528 102.017C252.528 97.3589 256.132 95.5019 262.758 95.5019C264.976 95.5019 267.527 95.7509 268.913 95.8619V108.06ZM73.656 77.5639L63.177 83.5799V119.621H74.266C75.292 119.638 76.136 118.817 76.151 117.791V78.9779C76.183 78.0949 75.508 77.3469 74.626 77.2869C74.235 77.2789 73.853 77.4059 73.545 77.6479M51.671 91.5089V118.318C51.671 118.992 52.218 119.538 52.891 119.538H60.099V85.188L52.919 89.3189C52.123 89.7129 51.634 90.5389 51.671 91.4259M59.351 25.527C51.593 25.555 43.85 26.222 36.202 27.524C44.554 16.839 57.378 10.6169 70.939 10.6679C81.018 10.7209 90.784 14.168 98.663 20.454C99.938 21.48 100.908 21.591 101.879 20.62C102.849 19.65 102.738 18.7069 101.685 17.4599C77.568 -11.1541 31.584 -3.32704 18.292 31.654C12.479 33.43 6.86699 35.8089 1.54699 38.7519C0.188988 39.4999 -0.31001 40.47 0.18899 41.524C0.67799 42.564 1.90399 43.0299 2.96099 42.5769C7.25799 41.3299 11.639 40.276 16.213 39.306C15.692 41.758 15.431 44.257 15.437 46.764C15.209 63.508 23.677 79.1729 37.81 88.1549C39.168 89.0139 40.36 89.0139 41.136 87.9609C41.913 86.9069 41.802 85.9369 40.637 84.8829C31.957 76.8719 27.031 65.59 27.053 53.778C27.018 48.059 28.169 42.3949 30.435 37.1439C35.009 36.7549 39.972 36.4779 45.434 36.4779C80.864 36.5339 110.889 48.2049 110.889 63.5359C110.889 71.2989 101.047 79.0339 89.375 84.2179C86.603 85.4659 86.27 86.3249 86.603 87.5729C86.936 88.8199 88.239 89.097 89.708 88.626C110.14 81.917 125.749 70.911 125.749 57.604C125.749 39.5 96.556 25.527 59.572 25.527M173.405 65.033C169.683 64.975 165.992 65.733 162.593 67.251V41.524C158.288 43.044 154.254 45.244 150.644 48.039C148.982 49.236 148.059 51.208 148.205 53.251V117.015C154.332 119.111 160.775 120.133 167.251 120.037C186.075 119.871 196.832 108.393 196.832 91.7589C196.832 75.1249 189.152 65.033 173.35 65.033M168.082 108.06C166.215 108.145 164.346 107.948 162.538 107.478V78.6179C165.15 77.4509 167.996 76.9009 170.855 77.0099C178.063 77.0099 181.944 81.9999 181.944 91.3989C181.944 101.296 177.397 108.033 168.082 108.033M233.621 65.505C227.784 65.244 222.238 68.0639 219.01 72.9349C218.676 70.6069 218.128 68.315 217.375 66.087C215.434 65.617 213.437 65.421 211.442 65.505C209.495 65.477 207.551 65.672 205.648 66.087V118.762C208.024 119.204 210.439 119.399 212.856 119.344C215.261 119.344 217.662 119.149 220.036 118.762V93.0339C220.036 82.8039 225.387 77.3429 232.595 77.3429C234.188 77.3149 235.782 77.3979 237.363 77.5919C238.194 73.7629 238.279 69.8099 237.613 65.9479C236.271 65.6759 234.907 65.528 233.537 65.505M512.88 64.8119C496.717 64.8119 487.651 75.9009 487.651 92.535C487.651 109.169 497.188 119.954 512.88 119.954C529.153 119.954 538.219 109.169 538.219 92.535C538.219 75.9009 529.153 64.8119 512.88 64.8119ZM512.88 108.254C504.868 108.254 502.428 101.767 502.428 92.4519C502.428 83.1369 504.868 76.4279 512.88 76.4279C520.892 76.4279 523.47 83.1649 523.47 92.4519C523.47 102.211 520.698 108.254 512.88 108.254ZM427.685 87.462L421.891 85.0219C418.509 83.6359 416.54 82.4719 416.54 80.2539C416.54 76.8709 419.562 76.1779 423.527 76.1779C428.145 76.1779 432.733 76.9269 437.111 78.3959C437.805 74.8249 437.805 71.1549 437.111 67.5839C432.135 65.5619 426.787 64.6169 421.42 64.8119C410.33 64.8119 401.792 70.855 401.792 79.893C401.792 88.044 405.257 92.1189 415.043 96.0559L419.562 97.9139C423.859 99.6599 425.107 100.686 425.107 103.458C425.107 107.644 420.921 108.365 417.455 108.365C412.081 108.306 406.763 107.263 401.764 105.288C400.849 108.994 400.849 112.866 401.764 116.571C407.459 119.102 413.671 120.252 419.895 119.926C430.984 119.926 439.773 114.132 439.773 103.68C439.773 95.0859 436.058 91.0099 427.796 87.5169M472.681 108.06C465.472 108.06 460.704 102.516 460.704 92.3689C460.704 82.832 464.53 76.6769 472.792 76.6769C475.946 76.6519 479.071 77.286 481.968 78.535C483.029 74.884 484.758 71.4619 487.069 68.4429C482.095 65.8609 476.534 64.619 470.934 64.839C454.993 64.839 445.817 76.0949 445.817 92.3689C445.817 109.225 455.242 119.898 471.516 119.898C476.991 120.089 482.426 118.897 487.319 116.433C484.876 113.421 482.998 109.993 481.774 106.314C478.899 107.622 475.752 108.221 472.597 108.06M372.238 64.839C356.658 64.839 347.121 75.291 347.121 92.729C347.121 110.167 357.24 119.898 374.567 119.898C380.161 120.031 385.72 119.001 390.896 116.876C391.701 113.224 391.701 109.44 390.896 105.787C386.078 107.316 381.063 108.137 376.009 108.227C367.997 108.227 362.424 105.205 361.26 96.7209H394.223C394.666 94.3079 394.861 91.8559 394.805 89.4019C394.805 73.7109 385.961 64.895 372.377 64.895M361.454 86.1589C362.507 79.7549 366.333 75.9289 372.127 75.9289C378.642 75.9289 381.193 80.3369 381.443 86.1589H361.454Z"
            fill="#0067A0" />
        <path
            d="M274.806 154.925V185.67C272.346 186.261 269.823 186.558 267.293 186.553C260.452 186.553 256.859 182.864 256.859 174.851V154.925C255.884 154.733 254.893 154.637 253.899 154.637C252.842 154.636 251.788 154.733 250.748 154.925V175.005C250.748 185.9 256.513 191.415 266.928 191.415C271.66 191.337 276.362 190.646 280.916 189.359V154.925C279.916 154.733 278.899 154.636 277.88 154.637C276.849 154.636 275.82 154.733 274.806 154.925ZM304.974 154.637C301.052 154.654 297.4 156.639 295.251 159.921C295.174 158.244 294.982 156.575 294.675 154.925C293.833 154.714 292.967 154.617 292.1 154.637C291.208 154.636 290.319 154.733 289.448 154.925V190.992C290.416 191.184 291.401 191.281 292.388 191.28C293.445 191.281 294.5 191.184 295.539 190.992V170.585C295.539 164.052 299.671 159.633 304.897 159.633C305.831 159.587 306.767 159.658 307.684 159.844C307.891 158.982 307.994 158.098 307.991 157.211C307.991 156.443 307.915 155.677 307.76 154.925C306.841 154.752 305.909 154.655 304.974 154.637ZM212.26 173.103C212.26 183.613 218.601 190.089 227.632 190.089C230.631 190.127 233.606 189.552 236.375 188.398V191.127C236.375 198.621 232.532 201.714 225.633 201.714C221.922 201.734 218.252 200.927 214.892 199.351C214.754 200.157 214.683 200.973 214.681 201.791C214.681 202.628 214.755 203.464 214.892 204.289C218.484 205.886 222.376 206.692 226.306 206.653C236.529 206.653 242.485 200.888 242.485 190.454V156.404C238.789 155.06 234.889 154.365 230.956 154.348C219.043 154.348 212.413 162.304 212.413 173.122M236.375 183.69C233.946 184.725 231.329 185.249 228.689 185.228C222.521 185.228 218.543 180.52 218.543 173.237C218.543 164.629 222.962 159.267 230.533 159.267C232.52 159.192 234.506 159.439 236.413 159.998L236.375 183.69ZM364.773 170.739L361.237 169.125C357.702 167.511 355.799 166.473 355.799 163.745C355.799 160.363 359.104 159.267 362.774 159.267C365.711 159.287 368.622 159.806 371.383 160.805C371.537 159.981 371.614 159.145 371.614 158.307C371.614 157.564 371.538 156.823 371.383 156.097C368.398 154.869 365.194 154.268 361.967 154.329C355.357 154.329 349.766 158.076 349.766 163.61C349.766 168.318 351.687 171.027 358.22 173.833L360.949 175.005C365.138 176.926 366.714 178.387 366.714 181.269C366.714 185.112 363.044 186.496 359.508 186.496C355.946 186.492 352.42 185.788 349.132 184.421C348.747 186.018 348.747 187.684 349.132 189.282C352.641 190.857 356.472 191.588 360.315 191.415C367.232 191.415 372.824 187.572 372.824 181.327C372.824 176.254 370.249 173.237 364.734 170.739M192.564 154.329C182.956 154.329 176.826 161.842 176.826 173.026C176.826 184.209 183.148 191.415 194.12 191.415C197.714 191.453 201.283 190.801 204.631 189.493C204.785 188.721 204.862 187.936 204.862 187.149C204.862 186.356 204.785 185.564 204.631 184.786C201.394 185.92 197.992 186.518 194.562 186.553C187.203 186.553 183.148 181.846 182.783 174.198H206.552C206.69 172.876 206.761 171.549 206.764 170.22C206.764 160.44 200.999 154.329 192.64 154.329M182.86 169.701C183.379 163.072 187.414 159.095 192.468 159.095C197.925 159.095 200.942 163.514 200.942 169.701H182.86ZM328.014 154.329C318.233 154.329 312.122 161.17 312.122 172.949C312.122 184.728 318.156 191.492 327.937 191.492C337.717 191.492 343.905 184.497 343.905 172.949C343.905 161.112 338.14 154.329 328.014 154.329ZM328.014 186.553C321.692 186.553 318.406 181.711 318.406 172.949C318.406 164.187 321.865 159.267 328.11 159.267C334.355 159.267 337.833 163.898 337.833 172.949C337.833 181.999 334.432 186.553 328.033 186.553M163.337 170.758L159.801 169.144C156.266 167.53 154.363 166.492 154.363 163.764C154.363 160.382 157.668 159.287 161.358 159.287C164.294 159.306 167.205 159.826 169.966 160.824C170.104 159.998 170.175 159.163 170.178 158.326C170.178 157.584 170.104 156.845 169.966 156.116C166.979 154.898 163.776 154.296 160.551 154.348C153.921 154.348 148.33 158.095 148.33 163.629C148.33 168.337 150.251 171.047 156.784 173.852L159.513 175.024C163.702 176.946 165.278 178.406 165.278 181.288C165.278 185.132 161.608 186.515 158.072 186.515C154.51 186.511 150.984 185.807 147.695 184.44C147.484 185.235 147.387 186.057 147.407 186.88C147.407 187.696 147.503 188.508 147.695 189.301C151.205 190.876 155.036 191.607 158.879 191.434C165.796 191.434 171.388 187.591 171.388 181.346C171.388 176.273 168.813 173.256 163.298 170.758"
            fill="#0067A0" />
    </g>
    <defs>
        <clipPath id="clip0_111_2">
            <rect width="538.219" height="206.654" fill="white" />
        </clipPath>
    </defs>
</svg>
    