<svg width="216" height="133" viewBox="0 0 216 133" fill="none" xmlns="http://www.w3.org/2000/svg">
    <g clip-path="url(#clip0_113_16)">
        <path
            d="M-6.10352e-05 128.2L2.99994 124.7C5.69994 127 8.39994 128.3 11.8999 128.3C14.8999 128.3 16.8999 126.9 16.8999 124.8V124.7C16.8999 122.7 15.7999 121.6 10.5999 120.4C4.59994 119 1.29994 117.2 1.29994 112C1.29994 107.2 5.29994 103.9 10.8999 103.9C14.9999 103.9 18.1999 105.1 21.0999 107.4L18.4999 111.1C15.9999 109.2 13.3999 108.2 10.8999 108.2C7.99994 108.2 6.29994 109.7 6.29994 111.5V111.6C6.29994 113.8 7.59994 114.7 12.9999 116C18.8999 117.4 21.9999 119.6 21.9999 124.2V124.3C21.9999 129.6 17.8999 132.7 11.9999 132.7C7.39994 132.7 3.39994 131.2 -6.10352e-05 128.2ZM30.3999 104.2H51.1999V108.6H35.2999V115.9H49.3999V120.3H35.2999V127.8H51.3999V132.2H30.3999V104.2ZM58.2999 118.3C58.2999 110.4 64.2999 103.7 72.7999 103.7C77.6999 103.7 80.6999 105.1 83.5999 107.5L80.4999 111.2C78.2999 109.4 76.1999 108.2 72.5999 108.2C67.3999 108.2 63.4999 112.7 63.4999 118.1V118.2C63.4999 124 67.2999 128.2 72.9999 128.2C75.5999 128.2 78.0999 127.4 79.7999 126.1V120.8H72.5999V116.5H84.5999V128.3C81.7999 130.7 77.8999 132.7 72.8999 132.7C64.0999 132.8 58.2999 126.5 58.2999 118.3ZM93.5999 120.4V104.2H98.4999V120.2C98.4999 125.4 101.2 128.2 105.6 128.2C110 128.2 112.7 125.6 112.7 120.4V104.2H117.6V120.1C117.6 128.5 112.9 132.7 105.5 132.7C98.1999 132.7 93.5999 128.5 93.5999 120.4ZM127.5 104.2H140C143.5 104.2 146.3 105.2 148.1 107C149.6 108.5 150.4 110.6 150.4 113.1V113.2C150.4 117.8 147.6 120.6 143.7 121.7L151.3 132.3H145.4L138.5 122.5H132.3V132.3H127.4V104.2H127.5ZM139.7 118.1C143.2 118.1 145.5 116.3 145.5 113.4V113.3C145.5 110.3 143.3 108.6 139.7 108.6H132.5V118H139.7V118.1ZM157.6 118.3C157.6 110.3 163.7 103.7 172.3 103.7C180.9 103.7 186.9 110.2 186.9 118.1V118.2C186.9 126.1 180.8 132.7 172.2 132.7C163.6 132.7 157.6 126.2 157.6 118.3ZM181.8 118.3C181.8 112.8 177.8 108.2 172.3 108.2C166.7 108.2 162.8 112.7 162.8 118.1V118.2C162.8 123.7 166.8 128.1 172.3 128.1C177.9 128.2 181.8 123.8 181.8 118.3ZM193.3 128.2L196.3 124.7C199 127 201.7 128.3 205.2 128.3C208.2 128.3 210.2 126.9 210.2 124.8V124.7C210.2 122.7 209.1 121.6 203.9 120.4C197.9 119 194.6 117.2 194.6 112C194.6 107.2 198.6 103.9 204.2 103.9C208.3 103.9 211.5 105.1 214.4 107.4L211.8 111.1C209.3 109.2 206.7 108.2 204.2 108.2C201.3 108.2 199.6 109.7 199.6 111.5V111.6C199.6 113.8 200.9 114.7 206.3 116C212.2 117.4 215.3 119.6 215.3 124.2V124.3C215.3 129.6 211.2 132.7 205.3 132.7C200.8 132.7 196.7 131.2 193.3 128.2Z"
            fill="#0067A0" />
        <path
            d="M96.4 84.9999H128C162.4 84.9999 179.6 67.0999 179.6 41.9999V41.7999C179.6 16.5999 162.7 -0.00012207 129 -0.00012207H96.4V84.9999ZM124.8 61.7999V23.2999H129.5C142.5 23.2999 150.9 29.0999 150.9 42.3999V42.6999C150.9 55.9999 142.5 61.7999 129.5 61.7999H124.8Z"
            fill="#0067A0" />
        <path d="M186.7 84.9999H215V-0.00012207H186.7V84.9999Z" fill="#0067A0" />
        <path d="M28.4 56.6998H56.7V28.2998H28.4V56.6998Z" fill="#0098EC" />
        <path d="M56.7 84.9999H85V-0.00012207H56.7V84.9999Z" fill="#0067A0" />
        <path d="M-6.10352e-05 84.9999H28.2999V-0.00012207H-6.10352e-05V84.9999Z" fill="#0067A0" />
    </g>
    <defs>
        <clipPath id="clip0_113_16">
            <rect width="215.3" height="132.701" fill="white" />
        </clipPath>
    </defs>
</svg>
    