<svg width="136" height="136" viewBox="0 0 136 136" fill="none" xmlns="http://www.w3.org/2000/svg">
  <g clip-path="url(#clip0_15_93)">
  <path d="M22.7456 0H113.687C126.257 0 136.425 10.1939 136.425 22.7482V113.702C136.425 126.254 126.257 136.425 113.687 136.425H22.7456C10.1709 136.425 0 126.254 0 113.702V22.7482C0 10.1939 10.1709 0 22.7456 0Z" fill="#0067A0"/>
  <path d="M11.369 113.69H21.975V68.2029H11.369V113.69Z" fill="#F0F0F0"/>
  <path d="M69.4982 78.6041C62.9958 78.6041 58.1446 80.2937 55.5104 81.8271L57.502 88.5292C59.8931 87.0828 64.0121 85.7849 67.7318 85.7849C73.9372 85.767 75.248 88.9209 75.248 90.5183V90.8844C61.4982 90.8255 53.0067 95.2902 53.0067 104.104C53.0067 109.291 57.118 114.526 64.7033 114.526C69.2217 114.526 73.0361 112.888 75.3529 110.146H75.4656L76.6252 113.689H85.2576V93.5263C85.2576 85.3318 81.2332 78.6041 69.4982 78.6041ZM75.5552 101.106C75.5552 101.647 75.504 102.264 75.3785 102.822C75.3632 102.893 75.294 103.131 75.2736 103.183C75.2505 103.239 75.2275 103.298 75.2044 103.354C74.2624 105.576 71.774 107.668 68.4256 107.668C65.5097 107.668 63.5001 106.157 63.5001 103.293C63.5001 100.082 66.2393 98.4287 70.3251 97.799C71.28 97.6479 72.3321 97.5583 73.4585 97.5148C74.1369 97.4918 74.8332 97.4841 75.5552 97.4943V101.106Z" fill="#F0F0F0"/>
  <path d="M114.556 79.6069V99.5877C114.556 100.392 114.456 101.108 114.2 101.753C113.35 103.804 111.259 106.126 107.813 106.126C103.484 106.126 101.587 102.944 101.587 97.6242V79.5839H91.2346V99.5186C91.2346 102.186 91.5572 104.454 92.1998 106.323C92.8398 108.192 93.7153 109.741 94.8289 110.952C95.9425 112.17 97.2788 113.058 98.8327 113.619C100.387 114.18 102.107 114.461 103.981 114.461C105.614 114.461 107.058 114.262 108.32 113.862C109.58 113.468 110.668 112.987 111.579 112.424C112.493 111.868 113.258 111.259 113.875 110.601C114.492 109.948 114.979 109.364 115.324 108.847L116.658 113.688H125.057V79.6069H114.556Z" fill="#F0F0F0"/>
  <path d="M31.927 68.2021V79.5838H27.0937V87.3586H31.927V101.218C31.927 105.803 32.846 109.247 34.8352 111.341C36.5401 113.171 39.5379 114.528 43.168 114.528C46.286 114.528 47.5174 114.062 48.9152 113.519V105.601C48.6284 105.737 47.8118 105.898 46.7494 105.898C43.0758 105.898 42.2259 103.612 42.2259 99.4341V87.3586H48.8025V79.5838H42.2259V68.2021H31.927Z" fill="#F0F0F0"/>
  <path d="M110.639 68.1988L104.246 77.3892H111.645L120.659 68.1988H110.639Z" fill="#F0F0F0"/>
  </g>
  <defs>
  <clipPath id="clip0_15_93">
  <rect width="136" height="136" fill="white"/>
  </clipPath>
  </defs>
  </svg>
  