<svg width="481" height="243" viewBox="0 0 481 243" fill="none" xmlns="http://www.w3.org/2000/svg">
    <g clip-path="url(#clip0_108_2)">
    <path d="M30.0116 95.4774C16.2216 94.3974 13.9016 85.2074 14.7816 73.9174C8.54164 70.7974 10.2216 64.0474 5.78164 58.1074C-4.85836 50.1974 1.88164 39.2174 4.92164 28.5774C9.01164 27.9974 9.01164 27.9974 11.4616 25.1174C10.6564 22.9749 10.0113 20.7755 9.53164 18.5374C8.06164 7.87743 16.9516 0.287432 28.8816 1.82743C38.8516 3.11743 38.8516 3.11743 44.1116 0.117432C46.6516 2.39743 46.6516 2.39743 48.1116 6.63743C52.8116 7.29743 55.2716 3.91743 57.9616 1.05743C59.6281 2.07757 60.997 3.51809 61.9308 5.23443C62.8647 6.95076 63.3307 8.88253 63.2821 10.8359C63.2334 12.7892 62.6719 14.6954 61.6538 16.3631C60.6357 18.0309 59.1968 19.4015 57.4816 20.3374C55.0616 21.7274 52.2516 22.4274 49.6816 23.5774C47.7716 24.4374 45.4716 25.0474 45.5116 27.9574C47.2116 29.2274 50.0316 27.5174 51.3916 30.4774C50.1316 32.9674 50.8616 35.6074 52.0516 38.4774C55.0516 45.6774 54.0516 50.4774 48.1716 59.6874C49.2846 64.1771 50.8736 68.5351 52.9116 72.6874C66.0116 63.3474 80.4716 61.0174 95.6916 62.4174C97.6916 57.7074 96.9816 52.6074 99.9916 47.5874C103.502 52.9074 103.212 58.7974 105.652 64.3074C114.996 67.0977 123.455 72.2664 130.202 79.3074L144.012 68.5374L145.152 69.2174C143.902 76.2774 140.262 82.6374 138.292 89.7874L143.932 100.787L165.932 92.9874L166.782 94.1174C161.522 101.957 154.252 108.207 148.522 115.687C151.987 132.045 152.626 148.874 150.412 165.447C110.182 167.757 80.6916 186.897 61.0616 221.157C58.2916 221.677 56.5716 220.367 54.3616 218.767C64.0616 200.397 79.1616 187.357 95.9116 175.827C75.0116 182.677 60.7216 197.117 50.1516 215.937C46.0516 213.847 43.7516 210.547 41.4016 207.387C30.8616 193.197 26.1116 176.867 24.5116 159.547C22.8516 141.487 24.1116 123.657 29.8916 106.307C31.0816 102.737 30.1916 99.1174 30.0116 95.4774ZM32.4616 70.4774L35.0116 71.7174C34.5116 99.3874 36.3216 126.327 48.6116 151.517C51.7516 142.617 55.8816 133.987 67.6116 131.997C62.5216 125.047 63.3916 116.767 60.6116 109.517C54.6616 94.2474 48.2416 79.1174 43.0916 63.5974C40.0916 54.5974 34.4116 51.1874 25.7616 50.7074C24.0916 56.4574 29.4216 56.0474 31.9116 57.9774C32.9116 62.1974 32.1816 66.3874 32.5416 70.5274C29.9816 69.0674 29.1316 65.7774 26.1916 64.5274L20.4916 68.8374C20.5816 73.9674 22.1316 78.9474 19.7116 84.0174C24.6116 82.1474 28.8616 82.0174 34.1916 84.9374C31.8916 79.5274 32.5016 74.9574 32.4416 70.4274L32.4616 70.4774ZM87.4616 115.007C95.5316 112.747 103.462 112.807 111.222 116.167C116.912 124.057 121.802 126.097 127.612 122.857L121.352 117.267L124.672 113.437C127.342 114.537 128.282 117.547 130.962 118.307C131.203 117.942 131.323 117.509 131.305 117.071C131.287 116.633 131.132 116.212 130.862 115.867C122.692 105.187 112.622 97.2874 98.8616 95.7974C91.4716 94.9974 83.9216 100.097 81.8616 106.477C80.4616 110.757 81.7116 115.677 78.6916 119.657C78.5212 119.897 78.4126 120.174 78.3754 120.465C78.3383 120.757 78.3738 121.053 78.4787 121.327C78.5836 121.601 78.7548 121.845 78.9769 122.037C79.199 122.229 79.4651 122.363 79.7516 122.427C81.4916 120.147 82.2916 116.707 86.2416 116.907C86.5316 119.697 83.4616 120.017 83.2416 122.127C83.0916 123.757 82.7616 125.407 83.4016 126.997C84.8116 127.837 86.0116 125.297 87.6516 126.997C87.3116 129.727 86.9516 132.637 86.5816 135.657C88.3316 136.287 90.1916 135.857 91.3616 137.167C91.4816 139.167 88.7416 139.307 88.8816 141.377C90.9516 141.517 93.2616 141.137 94.8816 143.277L88.8016 143.677C89.7416 146.837 92.5916 144.277 93.8816 145.827C93.6416 147.667 91.0816 146.897 90.6016 149.327C90.5213 150.099 90.6243 150.879 90.9023 151.604C91.1803 152.329 91.6255 152.977 92.2016 153.497C95.5116 154.957 98.3816 152.497 101.852 152.617L97.0816 160.007C97.9816 162.927 98.8616 165.757 99.8216 168.877C109.051 165.388 118.576 162.741 128.282 160.967C124.882 153.267 121.642 145.967 118.122 137.967C122.992 136.967 126.212 134.817 128.122 131.067C126.122 129.837 124.972 131.977 123.122 131.177L122.452 128.107C120.682 127.757 119.232 129.487 117.552 128.597C109.222 122.207 101.892 113.187 89.7116 117.807C89.0544 117.675 88.4635 117.319 88.0403 116.799C87.6171 116.279 87.3877 115.628 87.3916 114.957L87.4616 115.007ZM77.4616 137.007C64.8716 134.677 55.5516 141.407 52.4616 154.897C48.9616 170.417 54.9316 186.447 49.5616 201.897C59.9516 190.767 62.4416 184.997 64.4516 168.427C66.0116 155.577 71.1516 150.117 83.5216 148.687L77.4616 137.007ZM39.0116 24.5474C42.5316 19.7674 47.6316 19.2374 51.9216 17.1774C55.2616 15.5774 58.6316 13.8774 57.2316 8.78743C52.6916 12.1174 47.9516 13.2974 42.7816 10.8574C41.7816 9.69743 43.1516 7.91743 41.6916 6.79743C36.4816 8.79743 31.1616 7.30743 25.8816 7.33743C21.3116 7.33743 17.7216 9.33743 16.4216 13.9274C15.2016 18.2774 16.1516 22.0674 20.2516 24.4574C22.9016 23.5974 24.5816 21.1974 27.3716 21.7074C29.4716 22.3074 30.5216 24.7574 32.9216 24.8174C34.9216 24.5474 36.7016 22.3174 39.0116 24.5474ZM64.3416 186.297C69.8616 182.977 74.2716 180.107 78.8916 177.617C83.5116 175.127 88.5616 172.897 93.5216 170.497C88.6416 165.347 87.4316 158.497 83.7116 153.267C75.8316 152.707 71.3416 156.587 69.4816 165.447C68.1116 172.017 67.4016 178.747 64.3416 186.297ZM47.2516 46.3874C49.4016 41.4474 44.4116 37.6274 45.7616 33.0474C43.9416 32.9374 42.4916 33.9874 40.7616 32.7874C40.2716 31.5574 39.6616 30.0574 39.1816 28.8774C36.1816 27.4474 34.0316 30.0474 31.1816 29.2774C29.7016 28.7074 28.4316 26.7374 25.7316 27.1174C23.0316 29.8474 19.2516 29.8274 15.0716 29.2074C13.6316 31.5374 12.3916 34.5974 8.15164 32.3874C9.92164 37.7774 3.86164 41.6274 6.92164 46.8574C9.45164 39.6774 14.0616 36.3974 23.2916 36.1174C32.6816 35.7374 42.0116 36.0574 47.2516 46.3874ZM101.012 58.1874L100.012 58.3274C98.4616 69.4774 97.0116 80.6274 95.5116 92.0274L107.072 92.7574C105.012 80.9574 103.012 69.5774 101.012 58.1874ZM139.762 77.0174L139.122 76.7574L118.012 98.1174L127.012 104.517C131.392 95.1174 135.572 86.0474 139.762 77.0174ZM132.762 133.947C128.762 136.687 124.592 138.807 126.392 143.557C128.542 149.247 131.772 154.557 134.492 159.887C136.972 159.887 139.072 160.407 141.162 159.447C138.162 150.947 131.382 144.187 132.732 133.947H132.762ZM137.382 119.857L158.382 100.097L157.782 99.2274L133.012 110.117C134.522 113.467 135.772 116.307 137.352 119.857H137.382ZM65.5716 77.4574L64.4916 78.3574L78.8016 102.977C81.0616 100.457 83.1616 98.1374 85.4916 95.5474L65.5716 77.4574ZM24.9016 59.3274C24.7116 56.9274 22.5616 58.0074 21.9016 56.8874C22.6316 55.4674 23.5316 54.1774 22.2116 52.5974C19.5516 52.6674 17.2816 54.0174 15.0416 55.2374C12.8916 61.4274 12.8916 61.4274 16.2616 62.9074C13.4516 65.3374 14.3216 67.3774 16.7316 69.2674C19.8995 66.346 22.6488 63.001 24.9016 59.3274ZM17.3816 49.9974C24.0216 45.9974 30.3816 46.4574 36.7016 50.4074C35.8616 44.7474 32.7516 42.8074 25.6016 43.2374C21.5216 43.4774 17.5716 44.1174 17.3816 49.9974ZM67.6216 118.437C70.1816 119.877 71.7816 122.067 74.4816 122.437C74.9816 120.047 75.4016 118.007 75.8516 115.867C73.0216 114.587 70.4516 113.427 67.6216 112.167V118.437ZM97.8216 175.437C98.2416 175.157 98.2616 174.847 97.8216 174.527C97.4216 174.767 97.4316 175.117 97.8216 175.387V175.437Z" fill="#0067A0"/>
    <path d="M401.442 90.4574C401.442 97.8474 401.392 104.457 401.442 111.167C401.532 119.907 405.292 122.037 412.892 117.747C413.052 117.657 413.462 117.987 413.752 118.127C412.192 123.127 407.532 125.787 401.452 125.127C394.452 124.407 390.672 121.207 390.382 115.197C390.082 108.877 390.262 102.537 390.242 96.1974C390.242 94.4074 390.242 92.6174 390.242 90.5974H383.012C382.332 93.3174 381.572 96.2974 380.712 99.6774C377.302 97.8074 374.712 94.5274 370.712 95.5974C368.002 96.3174 366.172 98.2474 364.482 100.877C364.482 104.377 364.672 108.207 364.432 112.017C364.142 116.887 364.762 121.017 370.432 123.017H347.712C347.232 121.667 348.372 121.587 349.312 121.257C352.462 120.157 353.472 117.757 353.432 114.617C353.362 109.287 353.242 103.947 353.432 98.6174C353.642 93.5374 352.432 89.7174 346.532 88.3474C352.162 85.9774 357.992 86.5874 364.082 85.6974V96.4274C369.452 89.0074 373.882 81.6074 383.082 88.5774C390.082 84.8274 394.392 78.1074 401.082 72.3074V87.3074H433.032C433.342 90.0374 430.532 89.3074 430.092 91.1174C431.462 98.3374 436.002 104.247 438.732 112.117C441.482 104.677 445.872 99.0274 445.472 92.5774C444.402 90.0274 442.312 89.7174 440.342 87.6774H456.242C448.742 91.7674 447.722 99.6774 444.692 106.207C439.302 117.807 434.482 129.667 429.222 141.317C425.222 150.167 419.992 153.147 411.482 151.697C411.242 148.057 412.402 144.697 413.292 141.227C424.452 142.017 428.892 138.227 432.742 124.637C428.152 114.977 423.462 105.067 418.742 95.1774C418.136 93.701 417.083 92.4516 415.731 91.6049C414.378 90.7582 412.794 90.3569 411.202 90.4574C408.172 90.4874 405.012 90.4574 401.442 90.4574Z" fill="#0067A0"/>
    <path d="M274.012 210.367C276.202 214.367 279.882 213.737 283.012 214.177C287.112 214.757 291.332 214.247 295.362 215.557C301.652 217.557 305.782 222.167 305.982 227.387C306.192 232.887 302.432 238.387 296.442 240.717C287.867 244.195 278.285 244.249 269.672 240.867C265.852 239.417 262.382 237.207 262.452 232.367C262.522 227.527 265.952 225.157 270.052 223.587C271.112 223.187 272.372 223.217 273.282 221.937C269.552 220.497 265.022 219.817 264.922 214.517C264.802 208.197 270.162 207.777 275.212 205.987C268.212 203.527 264.212 199.577 264.902 192.407C265.592 185.237 271.692 179.677 280.082 179.327C288.472 178.977 296.562 181.137 304.732 180.137C306.282 182.287 305.262 184.227 305.672 186.447L299.492 186.757C303.872 200.047 298.342 207.407 284.082 207.627C280.662 207.687 277.082 207.167 274.012 210.367ZM271.222 228.917C274.542 235.737 280.872 236.647 287.112 237.197C291.882 237.617 296.752 237.287 299.512 232.397C295.202 222.807 277.522 220.477 271.252 228.917H271.222ZM290.562 193.977C290.796 191.443 290.285 188.895 289.092 186.647C286.862 182.647 282.252 181.647 278.902 184.247C273.622 188.347 274.902 200.507 280.902 203.407C286.382 206.037 290.552 202.117 290.592 193.977H290.562Z" fill="#0067A0"/>
    <path d="M271.562 91.4974C272.892 90.6674 273.562 90.2974 274.192 89.8374C280.192 85.4074 286.732 84.2674 293.382 87.8374C301.042 91.9574 303.252 99.0674 302.592 107.307C302.012 114.577 298.412 119.737 291.722 122.737C287.886 124.373 283.761 125.223 279.592 125.237C273.172 125.288 266.759 124.797 260.422 123.767V81.1174C260.327 79.2887 260.327 77.4562 260.422 75.6274C260.892 71.1374 260.012 67.4174 254.902 65.7674L255.262 64.6174L271.532 63.2574L271.562 91.4974ZM275.432 122.857C281.152 122.067 286.622 121.027 288.922 115.017C290.922 110.047 291.131 104.535 289.512 99.4274C286.512 90.0474 278.632 88.3674 271.592 95.8574C271.592 101.727 271.702 107.857 271.592 113.987C271.472 117.637 271.652 121.007 275.432 122.857Z" fill="#0067A0"/>
    <path d="M206.322 118.827C216.982 122.877 224.152 118.897 228.822 108.437C230.122 113.877 228.822 118.557 228.292 123.327H185.472C185.292 121.237 186.852 121.457 187.812 121.097C189.175 120.682 190.355 119.815 191.161 118.639C191.966 117.463 192.347 116.048 192.242 114.627C192.242 101.807 192.082 88.9774 192.302 76.1674C192.392 71.1674 188.032 70.6474 184.302 67.8474H211.962C212.013 68.1212 212.039 68.3989 212.042 68.6774C205.042 70.6074 204.742 75.8874 204.942 81.8974C205.262 91.8974 205.022 101.897 205.032 111.897C205.012 114.017 204.762 116.217 206.322 118.827Z" fill="#0067A0"/>
    <path d="M216.302 160.117C216.741 165.195 216.741 170.3 216.302 175.377C213.242 175.377 213.402 172.717 212.492 171.257C208.622 165.007 203.492 162.867 197.872 165.457C193.242 167.607 192.222 171.537 195.412 175.547C198.822 179.847 203.802 181.997 208.412 184.547C215.592 188.547 220.212 194.067 219.762 202.897C219.422 209.367 216.652 213.367 210.382 215.527C204.752 217.477 198.022 217.447 189.702 215.457C187.972 214.997 186.882 217.387 184.802 216.407V200.917C187.962 200.267 187.662 202.917 188.372 204.267C192.132 211.267 197.112 214.337 203.472 213.267C210.242 212.187 212.472 206.787 208.472 201.187C205.942 197.667 202.122 195.947 198.412 194.047C192.672 191.107 187.412 187.507 185.532 180.887C181.902 168.237 192.412 158.127 206.532 160.687C209.612 161.307 212.662 162.307 216.302 160.117Z" fill="#0067A0"/>
    <path d="M338.142 184.817C337.052 183.147 334.302 183.987 334.302 180.897C339.142 179.897 344.302 180.897 350.302 179.007C350.302 186.237 350.162 192.787 350.302 199.327C350.572 209.257 350.672 209.257 356.092 215.947L339.992 216.947C338.532 215.397 339.752 213.157 338.642 210.837C334.742 215.567 330.072 217.757 324.222 217.277C318.052 216.777 314.802 213.767 314.442 207.557C314.222 203.907 314.322 200.237 314.232 196.557C314.092 190.877 316.092 184.417 307.492 181.777L308.672 180.707L325.272 179.287C325.272 187.287 325.272 195.047 325.272 202.817C325.272 206.477 325.732 209.937 330.362 210.657C331.356 210.836 332.377 210.807 333.36 210.572C334.343 210.337 335.267 209.901 336.073 209.291C336.879 208.681 337.55 207.911 338.043 207.029C338.537 206.148 338.843 205.173 338.942 204.167C339.492 197.847 340.012 191.327 338.142 184.817Z" fill="#0067A0"/>
    <path d="M414.292 217.617C406.832 217.327 399.202 215.177 395.482 206.797C392.272 199.577 393.062 192.307 398.542 186.347C404.712 179.637 412.832 178.177 421.442 179.797C432.192 181.797 438.382 190.157 437.282 200.517C436.172 211.117 427.722 217.627 414.292 217.617ZM425.292 199.017C425.452 194.807 424.122 189.307 422.292 186.577C418.992 181.657 413.052 181.407 409.292 186.027C404.662 191.717 404.562 205.427 409.102 211.027C413.362 216.287 420.472 215.397 423.232 209.237C424.612 205.997 424.762 202.467 425.242 199.017H425.292Z" fill="#0067A0"/>
    <path d="M345.272 112.487C341.082 122.777 330.702 127.367 320.212 124.227C315.789 122.885 312.003 119.985 309.556 116.065C307.108 112.145 306.165 107.47 306.902 102.907C308.792 92.1174 317.112 85.3774 328.012 85.8674C337.922 86.3174 344.672 92.5274 345.632 102.517H318.602C318.762 109.017 319.832 114.777 325.372 118.197C333.752 123.367 339.522 117.897 345.272 112.487ZM333.612 99.7274C333.032 92.7274 329.972 88.4874 326.012 88.6474C322.052 88.8074 319.392 92.8574 319.122 99.7274H333.612Z" fill="#0067A0"/>
    <path d="M261.132 195.507H234.592C234.132 201.987 235.712 207.277 240.972 210.967C244.392 213.367 248.092 213.117 251.972 211.857C255.522 210.697 257.192 207.087 260.642 205.207C257.892 214.207 248.412 219.147 238.142 217.387C233.593 216.565 229.503 214.106 226.642 210.475C223.781 206.844 222.347 202.292 222.612 197.677C222.838 192.892 224.841 188.362 228.228 184.974C231.616 181.586 236.146 179.584 240.932 179.357C252.012 178.737 259.102 184.247 261.132 195.507ZM249.232 193.117C248.742 186.117 245.912 182.117 241.742 182.197C237.572 182.277 234.792 186.407 234.742 193.117H249.232Z" fill="#0067A0"/>
    <path d="M375.562 211.337C377.322 214.117 379.822 213.687 381.732 215.867H357.822C358.822 213.437 361.932 214.157 362.992 212.017C364.302 203.727 364.082 195.297 363.512 186.887C363.282 183.407 359.912 182.757 357.202 181.367C363.102 179.217 368.922 179.477 375.102 178.857V188.117C378.462 184.927 379.902 181.117 383.532 179.667C387.162 178.217 390.652 178.667 393.532 182.037C393.221 185.66 392.441 189.226 391.212 192.647C382.382 186.927 380.822 186.977 375.602 193.087L375.562 211.337Z" fill="#0067A0"/>
    <path d="M406.532 141.938C402.272 144.757 188.962 144.628 185.352 141.938H406.532Z" fill="#0067A0"/>
    <path d="M440.712 217.497C440.352 212.127 440.122 207.627 440.762 203.097C443.822 203.027 443.492 205.557 444.342 206.927C446.512 210.477 448.972 213.447 453.512 213.757C456.132 213.947 458.712 213.757 459.842 210.977C460.972 208.197 459.222 206.037 457.012 204.757C453.712 202.847 450.172 201.367 446.742 199.697C443.062 197.907 440.592 195.277 440.402 190.917C440.072 183.447 445.782 178.777 454.572 179.727C458.032 180.107 461.442 180.567 465.162 179.457V191.967C460.282 186.857 457.162 179.367 449.102 183.747C446.892 186.907 448.372 188.917 451.102 190.267C453.472 191.447 456.032 192.217 458.492 193.267C465.942 196.347 468.742 201.127 467.132 207.977C465.602 214.497 460.282 217.977 452.682 217.217C448.762 216.807 444.942 215.117 440.712 217.497Z" fill="#0067A0"/>
    <path d="M248.012 85.8174C248.012 94.6774 248.082 102.937 248.012 111.197C248.012 116.097 247.742 120.947 253.762 123.197H230.762C232.132 120.697 235.162 121.377 236.272 119.197C237.031 110.501 237.141 101.76 236.602 93.0474C234.962 89.7774 232.002 90.3174 229.782 87.9074C236.012 86.1174 241.762 86.5874 248.012 85.8174Z" fill="#0067A0"/>
    <path d="M480.562 142.117C477.912 144.557 438.822 144.917 433.422 142.117H480.562Z" fill="#0067A0"/>
    <path d="M242.562 63.3875C246.432 63.8575 248.892 65.9475 248.832 69.8375C248.772 73.7275 246.552 76.0474 242.582 76.2474C241.704 76.2745 240.83 76.12 240.015 75.7937C239.199 75.4673 238.46 74.9762 237.843 74.351C237.227 73.7258 236.746 72.9801 236.43 72.1604C236.115 71.3407 235.973 70.4648 236.012 69.5875C236.342 65.6475 238.812 63.7875 242.562 63.3875Z" fill="#0067A0"/>
    <path d="M105.072 108.177H93.1916C91.8453 106.331 91.0543 104.138 90.9116 101.857C95.7816 99.4674 100.632 99.7874 105.912 101.727C105.622 103.857 105.362 105.907 105.072 108.177Z" fill="#0067A0"/>
    <path d="M107.762 125.347C104.242 129.757 98.4317 123.347 95.3817 128.697C93.2017 128.167 91.8517 126.597 90.5717 124.957C94.3717 119.527 101.132 119.657 107.762 125.347Z" fill="#0067A0"/>
    <path d="M122.012 110.117L118.502 114.977L108.112 109.657C109.002 107.437 109.782 105.477 110.712 103.127L122.012 110.117Z" fill="#0067A0"/>
    <path d="M87.0617 104.007C88.4855 105.351 89.3797 107.16 89.5817 109.107L83.9317 113.107C83.2917 109.167 85.0717 106.827 87.0617 104.007Z" fill="#0067A0"/>
    </g>
    <defs>
    <clipPath id="clip0_108_2">
    <rect width="481" height="243" fill="white"/>
    </clipPath>
    </defs>
    </svg>
    