<svg width="185" height="98" viewBox="0 0 185 98" fill="none" xmlns="http://www.w3.org/2000/svg">
    <path
        d="M15.4334 91.9692C6.53533 90.4113 2.21196 81.3149 6.08288 72.3692C8.14402 67.5446 12.9198 64.68 18.8519 64.6298C21.4158 64.6298 23.0245 64.9313 24.784 65.7354C27.197 66.7908 27.2473 66.841 27.4986 65.8359C27.6495 65.2328 28.2024 64.8308 28.8057 64.8308C29.7106 64.8308 29.7609 65.0318 29.4592 67.4944C29.3084 68.9016 29.1576 70.9621 29.1576 72.0175C29.1576 73.5251 28.9565 73.8769 28.2024 73.8769C27.5992 73.8769 27.1467 73.3744 26.8954 72.52C26.0408 69.1026 23.0245 66.841 19.3043 66.841C16.4891 66.841 14.2269 68.198 12.6685 70.8113C11.4117 72.9221 11.3111 73.5251 11.3111 78.6513C11.3111 83.2749 11.462 84.481 12.3166 85.8882C13.6739 88.2 15.534 89.4564 17.9973 89.8082C22.5217 90.4113 26.0408 88.5016 27.9008 84.4308C29.4592 80.9631 30.163 81.7672 30.163 87.1949C30.163 91.0646 30.0122 91.9692 29.409 91.9692C29.0068 91.9692 28.5543 91.4667 28.4035 90.8134L28.1019 89.6575L25.7391 90.7631C22.9742 92.0698 18.8016 92.5723 15.4334 91.9692Z"
        fill="#0067a0" />
    <path
        d="M99.2867 91.7682C96.1196 90.9641 94.913 90.361 92.3994 88.0492C87.0706 83.2246 86.5679 75.4349 91.2935 69.9067C97.1753 63.0718 108.034 62.72 114.167 69.2031C116.681 71.8164 117.686 74.0277 117.988 77.4954C118.34 81.2646 117.183 84.3805 114.268 87.4964C110.598 91.4164 104.615 93.1251 99.2867 91.7682ZM106.928 89.1046C111.804 86.8431 113.463 76.9928 110.045 70.9118C107.431 66.1877 100.895 65.4338 97.1753 69.4544C93.7568 73.0728 93.3546 82.1692 96.4212 86.8431C98.231 89.6574 103.459 90.7631 106.928 89.1046Z"
        fill="#0067a0" />
    <path
        d="M161.624 91.7682C158.255 90.9138 156.446 89.9087 154.284 87.5969C151.318 84.5313 150.564 82.6718 150.564 78.4C150.564 75.1836 150.765 74.279 151.921 72.319C154.887 67.2431 159.462 64.68 165.394 64.68C173.639 64.68 179.721 70.0072 180.375 77.6964C180.928 84.9836 174.996 91.3661 166.902 92.1702C165.344 92.321 163.031 92.1702 161.624 91.7682ZM170.27 88.5518C172.884 86.6923 174.141 83.3754 174.091 78.5508C174.091 71.2636 170.773 66.841 165.444 66.841C160.065 66.841 156.798 71.2636 156.697 78.4502C156.647 83.7774 158.758 88.0492 162.076 89.5067C163.936 90.3108 168.561 89.7579 170.27 88.5518Z"
        fill="#0067a0" />
    <path
        d="M33.1794 91.2657C33.1794 90.9139 33.8832 90.4616 34.6875 90.2605C35.6929 90.0595 36.3967 89.5569 36.6984 88.7026C37.2514 87.2451 37.4022 70.9118 36.8995 68.399C36.6481 67.1426 36.2459 66.7405 35.1399 66.4892C34.3356 66.3385 33.6821 65.8862 33.6821 65.4841C33.6821 64.9313 34.8383 64.8308 39.8655 64.9313C43.5856 65.0318 45.9484 65.2831 45.8981 65.5846C45.8478 65.8862 45.3451 66.1374 44.7419 66.238C42.5299 66.5898 42.2283 67.9969 42.2283 77.4954C42.2283 82.3703 42.4294 86.9436 42.731 87.6472C43.3342 89.3057 46.5014 90.16 50.2717 89.758C53.7405 89.3559 55.1984 88.3508 56.2038 85.8882C56.606 84.8328 57.3098 83.9282 57.712 83.9282C58.3152 83.9282 58.3655 84.3805 58.1141 86.24C57.9633 87.5467 57.8125 89.3559 57.8125 90.2605V91.9692H45.4959C35.3913 91.9692 33.1794 91.8687 33.1794 91.2657Z"
        fill="#0067a0" />
    <path
        d="M58.3152 91.2154C58.3152 90.8133 58.6168 90.4615 59.019 90.4615C60.9293 90.4615 62.337 87.8985 66.9117 76.2892C71.3859 64.7303 71.587 64.3282 72.9443 64.3282C74.0503 64.3282 74.4524 64.68 75.0557 66.238C75.5082 67.2431 77.6698 72.6205 79.9321 78.1487C82.1943 83.6769 84.356 88.6021 84.8084 89.0544C85.2106 89.5067 86.216 90.0595 87.0204 90.2103C87.8247 90.4113 88.4783 90.8636 88.4783 91.2657C88.4783 91.8185 87.2215 91.9692 81.6916 91.9692C76.1114 91.9692 74.9049 91.8185 74.9049 91.2657C74.9049 90.8133 75.5082 90.4615 76.3125 90.361C78.0217 90.16 78.3234 88.6523 77.1671 85.6369L76.3125 83.4257H71.3859H66.409L65.5543 86.1395C64.5992 89.1549 65.0014 90.4615 66.9117 90.4615C67.4647 90.4615 67.8668 90.8133 67.8668 91.2154C67.8668 91.8185 67.0122 91.9692 63.091 91.9692C59.1698 91.9692 58.3152 91.8185 58.3152 91.2154ZM75.4076 81.1641C75.4076 80.159 71.6875 71.4144 71.3859 71.7159C71.1848 71.9169 70.6318 73.1231 70.1291 74.3795C69.6766 75.6359 68.822 77.6964 68.3193 79.0533L67.3641 81.4154H71.3859C73.5978 81.4154 75.4076 81.3149 75.4076 81.1641Z"
        fill="#0067a0" />
    <path
        d="M126.685 91.2154C126.685 90.7631 127.137 90.4615 127.891 90.4615C128.545 90.4615 129.601 90.0092 130.254 89.5067C131.461 88.5518 131.461 88.3508 131.611 78.5005C131.812 66.4892 131.863 66.5395 126.986 66.9918C124.523 67.1928 123.719 67.5446 122.814 68.6C122.16 69.3036 121.658 70.56 121.658 71.4144C121.658 72.3692 121.406 72.8718 120.904 72.8718C120.3 72.8718 120.149 72.0677 120.149 68.8513V64.8308H134.226H148.302V68.8513C148.302 72.0677 148.151 72.8718 147.548 72.8718C147.145 72.8718 146.793 72.52 146.793 72.0677C146.793 71.6154 146.442 70.5098 145.989 69.5549C145.134 67.7457 143.124 66.841 139.906 66.841C136.639 66.841 136.739 66.439 136.739 77.7467C136.739 83.8277 136.94 88.401 137.242 89.0041C137.594 89.5569 138.549 90.0595 139.755 90.2605C140.962 90.4615 141.766 90.8636 141.766 91.2657C141.766 91.8185 140.258 91.9692 134.226 91.9692C127.841 91.9692 126.685 91.8687 126.685 91.2154Z"
        fill="#0067a0" />
    <path
        d="M91.4946 52.0657C82.2446 50.0554 74.4524 40.2052 74.4022 30.5559V28.1436H79.8818H85.3111L85.663 30.7067C86.3668 35.8328 89.9361 40.8585 93.4049 41.5118C96.572 42.1149 99.9402 41.4616 101.951 39.8534L103.861 38.3457L107.933 41.6626L112.056 44.9795L110.246 46.839C107.732 49.4021 103.359 51.6134 99.538 52.2164C95.6168 52.8698 95.0638 52.8698 91.4946 52.0657Z"
        fill="#0067a0" />
    <path
        d="M74.4022 25.2287C74.4022 18.1426 80.3845 9.14668 87.2215 5.93027C94.5109 2.56309 104.213 3.97027 109.793 9.19693C110.799 10.1518 111.603 11.1569 111.603 11.4082C111.603 11.6595 109.793 13.3682 107.632 15.1774C103.66 18.4944 103.66 18.4944 102.705 17.4892C101.197 15.7805 98.9348 14.9262 96.019 14.8759C90.6902 14.8257 87.4225 18.2933 85.7636 25.7815L85.4619 27.1385H79.9321H74.4022V25.2287Z"
        fill="#0067a0" />
</svg>
    