<svg xmlns="http://www.w3.org/2000/svg" viewBox="0 0 511.04 360.05"><defs><style>.cls-1{fill:#0069a3;}.cls-2{fill:#0069a2;}</style></defs><g id="Camada_2" data-name="Camada 2"><g id="Camada_1-2" data-name="Camada 1"><path class="cls-1" d="M511,323c-2,2.36-2,5.48-3.14,8.17-1,2.49-2,3.72-4.28,1-2.05-2.39-4.43-4.5-6.66-6.74q-70.57-70.94-141.23-141.79c-2.92-2.92-3-4.33,0-7.29Q429.08,103,502.22,29.31c4.29-4.3,4.3-4.3,6.29,1.41.85,2.44,1.68,4.88,2.53,7.31Z"/><path class="cls-2" d="M485.22,4.47c-7.84,7.7-15.13,14.74-22.27,21.92Q366.2,123.55,269.5,220.74c-9,9.08-18.85,9.09-27.87,0L30.24,8.34C29.08,7.17,28,5.94,26.65,4.52,31.52,1.45,36.74.77,42,.16a51.81,51.81,0,0,1,6-.12Q255.53,0,463.1,0A51.6,51.6,0,0,1,485.22,4.47Z"/><path class="cls-2" d="M26.88,356c.61-2,2.08-2.92,3.23-4.08Q103,278.57,175.87,205.24c3-3.07,4.72-3.66,8-.18,12,12.51,24.28,24.68,36.5,36.94,20.85,20.94,49.5,20.87,70.42-.14,12.46-12.5,25-24.94,37.27-37.59,2.5-2.57,3.82-2.34,6.22.08q73.53,74.09,147.25,148c3,3,2.91,4.19-1.16,5.31a56.7,56.7,0,0,1-15.19,2.42q-209.79,0-419.59,0A42.8,42.8,0,0,1,26.88,356Z"/><path class="cls-1" d="M0,179.74q0-66.48,0-133A47.65,47.65,0,0,1,2.6,30.59c2-5.55,2-5.57,6-1.55q33.48,33.63,67,67.25,40,40.18,80,80.3c2.81,2.81,2.66,4.2-.05,6.93Q82.1,257,8.9,330.72c-4.32,4.34-4.32,4.32-6.32-1.32A47.67,47.67,0,0,1,0,313.23Q.09,246.48,0,179.74Z"/></g></g></svg>