<svg width="381" height="184" viewBox="0 0 381 184" fill="none" xmlns="http://www.w3.org/2000/svg">
    <g clip-path="url(#clip0_113_23)">
        <path
            d="M196.01 64.67V81.27H190.698V64.67C188.158 64.67 184.843 64.659 183.59 64.612L165.962 64.658C164.473 64.736 162.937 64.391 161.553 63.596C158.878 62.053 157.435 59.195 157.551 56.325C157.555 55.903 157.606 55.53 157.656 55.236C158.28 51.723 159.517 48.26 161.398 45.007C163.283 41.734 165.679 38.923 168.428 36.619C170.27 35.255 172.853 34.576 175.226 34.991C175.896 32.722 177.471 30.85 179.518 29.779C179.91 29.554 180.27 29.403 180.573 29.295C184.567 27.848 188.875 27.065 193.35 27.065C197.852 27.065 202.175 27.856 206.193 29.318C208.504 30.322 210.563 32.42 211.428 34.921C213.692 34.402 216.038 34.91 217.888 36.309C220.629 38.617 223.425 41.73 225.31 45.003C227.186 48.256 228.423 51.715 229.051 55.232C229.106 55.527 229.148 55.899 229.148 56.322C229.269 59.191 227.83 62.049 225.151 63.592C223.766 64.387 222.235 64.732 220.742 64.655L203.118 64.608C201.861 64.659 198.554 64.67 196.01 64.67ZM214.867 40.683C214.836 40.66 214.805 40.637 214.782 40.613C213.94 39.978 212.765 39.865 211.796 40.427C211.288 40.722 210.912 41.156 210.683 41.657L201.753 57.214C201.478 57.621 201.45 58.171 201.714 58.629C201.978 59.09 202.486 59.338 202.986 59.292L220.92 59.342C221.447 59.389 222.002 59.272 222.494 58.986C223.433 58.447 223.917 57.435 223.836 56.422C223.844 56.353 223.844 56.267 223.821 56.163C223.297 53.247 222.273 50.37 220.707 47.659C219.133 44.937 217.147 42.599 214.867 40.683ZM171.93 40.617C171.903 40.637 171.876 40.66 171.849 40.687C169.569 42.603 167.58 44.941 166.005 47.663C164.439 50.373 163.415 53.25 162.895 56.166C162.872 56.271 162.868 56.353 162.876 56.426C162.791 57.438 163.283 58.45 164.218 58.989C164.714 59.276 165.261 59.393 165.796 59.346L183.726 59.296C184.226 59.342 184.734 59.094 185.002 58.633C185.265 58.175 185.227 57.624 184.955 57.217L176.029 41.66C175.804 41.16 175.428 40.726 174.916 40.431C173.947 39.873 172.772 39.981 171.93 40.617ZM204.506 34.359C204.467 34.343 204.421 34.324 204.378 34.308C200.939 33.06 197.224 32.377 193.354 32.377C189.503 32.377 185.812 33.052 182.384 34.293C182.264 34.339 182.171 34.382 182.097 34.436C180.969 34.964 180.193 36.108 180.193 37.438C180.193 38.14 180.41 38.795 180.783 39.334L191.858 58.4C192.121 58.962 192.691 59.354 193.354 59.354C194.002 59.354 194.564 58.981 194.832 58.435L205.914 39.365C206.305 38.814 206.534 38.147 206.534 37.422C206.534 36.049 205.704 34.863 204.506 34.359ZM193.354 0C223.274 0 247.532 24.255 247.532 54.174C247.532 84.098 223.274 108.348 193.354 108.348C163.43 108.344 139.18 84.097 139.18 54.174C139.18 24.254 163.431 0 193.354 0ZM193.354 5.161C166.28 5.161 144.337 27.105 144.337 54.174C144.337 81.243 166.281 103.191 193.354 103.191C220.428 103.191 242.367 81.247 242.367 54.174C242.363 27.104 220.423 5.161 193.354 5.161ZM290.752 135.501H286.421V151.709H290.752C295.669 151.709 299.644 147.731 299.644 142.822C299.644 137.913 295.146 135.501 290.752 135.501ZM319.303 169.45V169.896C319.303 169.748 319.311 169.601 319.303 169.45ZM319.303 169.9V183.441H299.628V170.335C299.636 170.191 299.644 170.048 299.644 169.9C299.644 164.991 295.661 161.013 290.752 161.013H286.421V183.441H266.079V129.282H305.763C313.239 129.282 319.304 135.343 319.304 142.819C319.304 150.295 313.243 156.356 305.763 156.356C313.096 156.356 319.071 162.18 319.304 169.451C319.312 169.602 319.304 169.749 319.304 169.901L319.303 169.9ZM380.011 160.826H346.819V174.553H380.011V183.445H326.81V129.267H380.011V138.158H346.819V151.935H380.011V160.826ZM225.901 151.935H259.07V160.826H225.901V183.444H205.896V129.266H259.07V138.158H225.901V151.935ZM170.407 135.491H166.068V151.703H170.407C175.433 151.703 179.299 147.725 179.299 142.816C179.299 137.903 174.917 135.491 170.407 135.491ZM183.168 129.287C191.889 129.287 198.962 136.356 198.962 145.077C198.962 153.798 191.889 160.867 183.168 160.867H165.73V183.435H145.729V129.288L183.168 129.287ZM106.12 137.381L97.997 165.661H114.244L106.12 137.381ZM72.889 183.443L88.446 129.265H123.794L139.355 183.443H119.35L116.799 174.552H95.449L92.893 183.443H72.889ZM0 183.444V129.267H20.005L33.231 156.352L46.457 129.267L66.462 129.271V183.445H46.457V156.352L33.231 183.445L20.005 156.352V183.445L0 183.444Z"
            fill="#0067A0" />
    </g>
    <defs>
        <clipPath id="clip0_113_23">
            <rect width="380.011" height="183.445" fill="white" />
        </clipPath>
    </defs>
</svg>
    