<svg xmlns="http://www.w3.org/2000/svg" viewBox="0 0 478.91 478.96"><defs><style>.cls-1{fill:#0069a2;}</style></defs><g id="Camada_2" data-name="Camada 2"><g id="Camada_1-2" data-name="Camada 1"><path class="cls-1" d="M199,135c-.16,8.58-4.45,15.17-10.15,21-8.83,9.09-19,16.71-28.46,25.07-2.59,2.28-2.94,4.12-1.77,7.23q36,95.78,131.42,132.28c3.81,1.47,6.15,1,8.84-2.3,7.39-9,15.1-17.74,22.91-26.38,10.29-11.38,22.5-14.15,37-8.59,17.48,6.69,33.67,15.75,49.62,25.35,19,11.42,37.33,23.7,55.27,36.65a37.87,37.87,0,0,1,14,19.52A21.54,21.54,0,0,1,476,382.66a100.08,100.08,0,0,1-15.12,20.41c-25,26.76-53.45,49.34-84.19,69.24-12.39,8-24.71,7.6-38.11,4.88-44-8.93-83.77-27.7-121-52.13C145.42,377.64,86.72,317,42.8,242.41,24.05,210.56,9.65,176.86,2.65,140.32c-1-5.38-1.62-10.85-2.46-16.27-.89-5.82,1.45-10.8,4.1-15.64C15.71,87.59,30.1,68.85,45.38,50.8,58.74,35,72.93,20.18,89.32,7.38c17.93-14,34.58-5.94,43.55,6.35,22.46,30.79,43.35,62.66,59.36,97.44C195.71,118.71,198.79,126.48,199,135Z"/></g></g></svg>