<svg width="270" height="86" viewBox="0 0 270 86" fill="none" xmlns="http://www.w3.org/2000/svg">
  <g clip-path="url(#clip0_13_72)">
  <path d="M265.53 0H188.006C185.688 0 183.789 1.88842 183.789 4.21408V81.7414C183.789 84.0591 185.685 85.9475 188.006 85.9475H265.53C267.845 85.9475 269.744 84.0591 269.744 81.7414V4.21408C269.747 1.88842 267.848 0 265.53 0Z" fill="#0067A0"/>
  <path d="M263.991 51.2316C260.882 47.2884 253.274 46.4622 249.157 46.4622C231.995 46.4622 215.573 49.6516 200.468 55.4859C200.6 51.0089 200.471 46.5266 199.966 42.1033C211.466 38.7476 231.756 36.0518 245.112 37.2213C257.588 38.3157 262.287 45.2686 263.991 51.2316Z" fill="#F0F0F0"/>
  <path d="M258.406 39.8474C254.927 36.5802 252.274 34.225 241.724 32.6987C231.176 31.1805 208.861 33.4766 198.985 35.9632C198.277 32.0603 197.324 28.2056 196.133 24.4288C202.898 23.2405 209.862 22.6155 216.976 22.6155C223.883 22.6155 230.667 23.2056 237.252 24.3295C251.203 26.7196 255.643 34.5335 258.406 39.8474Z" fill="#F0F0F0"/>
  <path d="M188.572 7.331C224.495 6.39752 244.674 22.1246 248.693 26.4567C245.195 23.5409 238.446 21.057 232.633 19.9357C225.49 18.565 218.116 17.8515 210.543 17.8515C205.009 17.8515 199.556 18.2377 194.229 18.9888C192.871 15.4453 190.355 10.6867 188.572 7.331Z" fill="#F0F0F0"/>
  <path d="M258.406 73.9973C264.184 62.0578 262.829 59.9709 251.482 61.3523C233.845 63.5063 211.614 71.0573 194.819 80.1266C197.882 74.1985 199.376 68.2301 199.966 62.8464C216.182 55.7273 234.023 51.6286 252.778 51.2584C272.413 50.8694 265.045 65.891 258.406 73.9973Z" fill="#F0F0F0"/>
  <path d="M112.34 50.2927C114.77 49.9386 118.386 49.6703 122.404 49.6703C127.364 49.6703 130.83 50.3409 133.214 52.0175C135.194 53.4391 136.288 56.4274 136.288 59.1768C136.288 62.9832 133.831 65.6978 130.959 66.6286V66.76C132.386 68.7504 140.921 79.7161 140.921 79.7161H132.576L123.609 67.9966H119.829V79.7161H112.34V50.2927ZM119.829 63.1307H122.799C126.57 63.1307 128.799 61.4515 128.799 58.8308C128.799 56.0894 126.715 54.7187 123.247 54.673C121.414 54.673 120.368 54.8045 119.826 54.8876V63.1307H119.829ZM1.53435 72.7955C3.57299 73.7263 6.69532 74.6464 9.9196 74.6464C13.3933 74.6464 15.2281 73.3642 15.2281 71.4221C15.2281 69.5578 13.6455 68.4902 9.61648 67.208C4.06387 65.4805 0.4426 62.7418 0.4426 58.3936C0.4426 53.2943 5.20122 49.3967 13.0875 49.3967C16.859 49.3967 19.6407 50.1129 21.631 50.9096L19.9438 56.3549C18.6053 55.7809 16.2233 54.9359 12.9427 54.9359C9.67281 54.9359 8.07945 56.2691 8.07945 57.8142C8.07945 59.7294 9.97056 60.5636 14.2866 62.0229C20.1986 63.9811 22.9749 66.7171 22.9749 70.9312C22.9749 75.9312 18.6589 80.2365 9.47968 80.2365C5.65455 80.2365 1.88574 79.3084 0 78.3749L1.53435 72.7955ZM45.5073 67.1195H33.195V74.2118H46.9424V79.7456H25.601V49.8876H46.2476V55.4241H33.2003V61.6286H45.51V67.1195H45.5073ZM77.5649 78.3749C75.2312 79.0884 70.8159 80.0595 66.3953 80.0595C60.2928 80.0595 55.8775 78.6807 52.7954 76.0278C49.716 73.458 48.0288 69.5605 48.0797 65.1855C48.1334 55.2551 56.2182 49.5764 67.1893 49.5764C71.5053 49.5764 74.8288 50.3275 76.4705 51.0464L74.8852 56.4461C73.0477 55.7407 70.765 55.1586 67.09 55.1586C60.7944 55.1586 56.0277 58.3507 56.0277 64.8207C56.0277 70.9768 60.3438 74.6142 66.5455 74.6142C68.281 74.6142 69.6732 74.4371 70.2687 74.1716V67.9242L70.2902 62.6559H77.5622V78.3749H77.5649ZM88.5306 49.8903V67.0792C88.5306 72.2134 90.7141 74.8288 94.5822 74.8288C98.5549 74.8288 100.738 72.3583 100.738 67.0792V49.8903H108.281V66.6366C108.281 75.8561 103.069 80.2365 94.3354 80.2365C85.8965 80.2365 80.9314 76.0707 80.9314 66.5481V49.8957H88.528V49.8903H88.5306ZM170.444 64.5149C170.444 74.295 163.794 80.2365 154.017 80.2365C144.089 80.2365 138.287 73.5466 138.287 65.0406C138.287 56.0947 144.69 49.3967 154.564 49.3967C164.84 49.3994 170.444 56.2691 170.444 64.5149ZM146.278 64.9038C146.278 70.7595 149.355 74.8797 154.414 74.8797C159.526 74.8797 162.456 70.5369 162.456 64.7375C162.456 59.37 159.58 54.7535 154.363 54.7535C149.255 54.7589 146.278 59.1044 146.278 64.9038Z" fill="#0067A0"/>
  <path d="M26.4272 8.44698C23.7448 6.52369 19.74 5.5902 14.182 5.5902C9.36971 5.5902 5.30048 5.82626 2.05475 6.30909V41.5507H10.5339C10.5339 40.9365 10.5339 28.5088 10.5339 28.5088L10.8987 28.5625C11.7142 28.6671 12.7871 28.7234 13.9888 28.7234C19.5897 28.7234 24.0989 27.4251 27.012 24.968C29.3511 22.9911 30.6386 20.0082 30.6386 16.5935C30.6467 13.3022 29.1123 10.3327 26.4272 8.44698ZM13.9379 23.0689C12.484 23.0689 11.5478 22.9964 10.7914 22.8409L10.5339 22.7818V11.5425L10.7726 11.4728C11.1964 11.3789 12.3874 11.1455 14.6675 11.1455C19.3698 11.1455 22.1756 13.2619 22.1756 16.8081C22.1756 20.6654 19.0184 23.0689 13.9379 23.0689ZM51.7466 5.271C40.2766 5.271 32.2561 12.9615 32.2561 23.9809C32.2561 34.842 39.8286 42.1489 51.0814 42.1489C63.0316 42.1489 70.7489 34.7642 70.7489 23.3291C70.7516 14.3376 64.8771 5.271 51.7466 5.271ZM51.5669 36.2691C45.349 36.2691 41.3361 31.379 41.3361 23.8146C41.3361 16.2367 45.4188 11.1455 51.5079 11.1455C57.4924 11.1455 61.6743 16.2689 61.6743 23.6C61.6743 31.2985 57.7096 36.2691 51.5669 36.2691ZM96.5136 26.2717L96.4519 26.1885V25.6869L96.6745 25.6091C99.5688 24.681 102.946 21.8189 102.946 16.843C102.946 13.3263 101.495 9.93304 99.3408 8.38797C96.6021 6.45126 92.5972 5.5902 86.3579 5.5902C81.999 5.5902 77.6722 5.85576 74.4184 6.30641V41.5481H82.8949C82.8949 40.9257 82.8949 27.2615 82.8949 27.2615H87.9888C87.9888 27.2615 98.7185 41.2906 98.9143 41.5481H108.252C106.326 39.0695 98.0479 28.4015 96.5136 26.2717ZM86.8434 21.9771H82.8976V11.3574L83.1631 11.3118C84.2898 11.1294 85.7114 11.0382 87.3987 11.0382C91.9615 11.0972 94.4776 13.0125 94.4776 16.4299C94.4749 19.858 91.5591 21.9771 86.8434 21.9771ZM134.784 5.86113C134.784 6.41907 134.784 11.5559 134.784 12.1139C134.175 12.1139 123.668 12.1139 123.668 12.1139C123.668 12.1139 123.668 40.9204 123.668 41.5534C123.088 41.5534 115.655 41.5534 115.071 41.5534C115.071 40.9204 115.071 12.1139 115.071 12.1139C115.071 12.1139 104.746 12.1139 104.137 12.1139C104.137 11.5559 104.137 6.41907 104.137 5.86113C104.773 5.86113 134.159 5.86113 134.784 5.86113ZM153.166 5.271C141.699 5.271 133.679 12.9615 133.679 23.9809C133.679 34.842 141.24 42.1489 152.509 42.1489C164.454 42.1489 172.174 34.7642 172.174 23.3291C172.169 14.3376 166.299 5.271 153.166 5.271ZM152.987 36.2691C146.774 36.2691 142.764 31.379 142.764 23.8146C142.764 16.2367 146.844 11.1455 152.933 11.1455C158.923 11.1455 163.105 16.2689 163.105 23.6C163.099 31.2985 159.135 36.2691 152.987 36.2691Z" fill="#0067A0"/>
  </g>
  <defs>
  <clipPath id="clip0_13_72">
  <rect width="270" height="86" fill="white"/>
  </clipPath>
  </defs>
  </svg>
  