<svg width="812" height="254" viewBox="0 0 812 254" fill="none" xmlns="http://www.w3.org/2000/svg">
    <g clip-path="url(#clip0_109_25)">
    <path d="M589.463 89.4103C588.093 92.7103 586.673 95.9903 585.363 99.3103C576.183 122.7 566.943 146.06 557.953 169.52C556.593 173.07 554.873 174.3 551.103 174.21C541.593 173.96 541.603 174.15 538.103 165.34C528.596 141.033 519.049 116.726 509.463 92.4203C509.118 91.2693 508.418 90.2583 507.463 89.5303C507.463 93.6003 507.463 97.6703 507.463 101.73C507.463 124.38 507.403 147.03 507.533 169.67C507.533 173.05 506.783 174.25 503.153 174.21C492.593 174.08 492.593 174.21 492.593 163.86C492.593 135.72 492.673 107.58 492.503 79.4403C492.503 75.4403 493.293 73.7703 497.633 74.1003C503.633 74.5603 510.683 72.4903 515.263 75.1003C519.843 77.7103 520.343 85.4703 522.543 90.9903C530.543 111.08 538.343 131.24 546.233 151.36C546.963 153.2 547.753 155.01 548.883 157.7C551.743 150.49 554.323 144.1 556.883 137.7C564.653 117.87 572.463 98.0603 580.083 78.1803C581.223 75.1803 582.693 74.0403 585.883 74.1803C591.033 74.4203 596.213 74.3603 601.373 74.1803C604.093 74.0903 605.223 74.8003 605.213 77.7603C605.126 108.74 605.126 139.716 605.213 170.69C605.213 173.23 604.453 174.08 601.813 174.19C590.313 174.71 590.323 174.8 590.323 163.35V89.5903L589.463 89.4103Z" fill="#0067A0"/>
    <path d="M374.113 123.72C374.703 103.99 381.483 87.6303 399.933 78.0903C420.813 67.3003 450.383 72.0303 464.113 89.0903C477.323 105.48 478.193 124.49 472.373 143.94C468.373 157.27 459.523 166.63 446.593 171.94C423.743 181.36 396.243 174.41 383.253 155.83C376.553 146.2 373.933 135.37 374.113 123.72ZM395.693 144.94C406.483 170.6 436.333 169.27 448.393 154.27C460.833 138.8 461.453 111.13 449.333 95.3603C437.085 79.5283 413.221 79.4153 400.823 95.1303C393.963 103.9 391.573 114.13 391.463 125.04C391.515 131.891 392.954 138.66 395.693 144.94Z" fill="#0067A0"/>
    <path d="M811.783 123.72C811.603 140.99 807.093 156.64 792.053 166.72C774.463 178.56 755.273 179.2 736.463 170.32C719.203 162.2 711.653 146.82 710.583 128.32C709.423 108.52 715.123 91.3903 732.583 80.0503C755.353 65.3103 790.583 72.2903 804.123 94.0503C809.793 103.2 811.773 113.2 811.783 123.72ZM788.593 99.9603C778.433 80.5803 751.803 77.6203 737.733 94.3303C726.103 108.15 724.403 132.77 733.963 148.91C746.913 170.76 776.043 170.55 788.543 148.45C792.823 140.89 794.443 132.61 794.373 123.97C794.501 115.607 792.513 107.348 788.593 99.9603Z" fill="#0067A0"/>
    <path d="M626.743 123.7C626.743 108.89 626.853 94.0803 626.663 79.2703C626.663 75.5303 627.363 73.9303 631.553 74.1103C644.503 74.6803 657.553 73.3303 670.433 75.1103C673.558 75.5303 676.644 76.1993 679.663 77.1103C692.263 81.0103 699.083 89.0303 699.663 100.36C700.363 114.71 694.873 124.15 682.593 129.61C674.843 133.05 666.593 133.97 658.253 134.28C653.353 134.46 646.783 132.04 644.033 135.42C641.633 138.36 643.333 144.66 643.293 149.48C643.293 156.48 643.163 163.48 643.293 170.48C643.363 173.3 642.433 174.1 639.603 174.17C626.753 174.5 626.753 174.59 626.753 161.63L626.743 123.7ZM667.283 122.93C677.523 120.28 682.993 112.77 682.523 101.93C682.113 92.6003 675.993 86.4403 665.523 84.8703C659.403 83.9503 653.223 84.6403 647.083 84.3503C644.023 84.2303 643.073 85.3503 643.143 88.3503C643.333 96.6603 643.233 104.98 643.233 113.29C643.233 123.92 643.233 123.92 655.363 123.92C659.363 124.121 663.371 123.788 667.283 122.93Z" fill="#0067A0"/>
    <path d="M330.193 72.8003C338.329 72.8403 346.439 73.7493 354.383 75.5103C361.383 77.0003 357.103 81.9303 357.103 85.0603C357.103 89.1503 353.833 86.3503 352.383 85.9603C343.283 83.5103 334.113 82.2303 324.703 83.2203C320.021 83.5353 315.53 85.1983 311.773 88.0103C304.713 93.5803 304.923 102.45 312.103 107.86C318.193 112.46 325.423 114.59 332.333 117.44C338.953 120.16 345.723 122.56 351.553 126.87C367.363 138.56 366.073 159.55 348.883 169.23C336.693 176.09 323.453 176.51 310.023 174.96C304.573 174.33 299.233 172.84 293.793 172.15C288.933 171.53 287.603 169.28 288.283 164.5C289.083 158.85 288.693 158.83 294.113 160.8C305.403 164.91 316.943 166.86 328.923 164.64C332.723 164.026 336.301 162.446 339.313 160.05C346.093 154.46 346.673 145.31 340.593 138.93C337.203 135.37 332.933 133.13 328.473 131.2C320.103 127.58 311.303 124.95 303.343 120.42C297.433 117.07 292.343 112.81 290.223 106.02C287.223 96.3403 291.053 86.3203 300.073 80.5103C309.843 74.2003 320.773 72.6203 330.193 72.8003Z" fill="#0067A0"/>
    <path d="M609.863 224.07C609.383 245.61 594.183 257.9 573.683 253.15C566.365 251.683 560.158 246.871 556.913 240.15C552.166 230.807 551.692 219.868 555.613 210.15C560.193 198.15 571.613 191.86 584.883 193.32C597.883 194.75 607.113 203.58 609.213 216.66C609.603 219.08 609.653 221.59 609.863 224.07ZM598.813 212.92C596.283 206.46 591.973 202.08 584.723 201.03C577.473 199.98 570.873 201.7 566.723 208.03C560.953 216.83 560.593 226.47 564.783 236.03C567.923 243.32 573.943 246.63 581.923 246.48C589.903 246.33 595.353 242.48 598.573 235.24C600.107 231.599 600.791 227.655 600.573 223.71C600.882 220.023 600.277 216.317 598.813 212.92Z" fill="#0067A0"/>
    <path d="M429.153 236.55C428.993 239.882 429.02 243.22 429.233 246.55C429.673 250.55 428.083 252.29 424.303 252.89C416.873 254.08 409.483 254.89 402.023 253.05C388.093 249.62 380.143 238.8 380.163 223.05C380.163 208.62 388.803 197.31 402.283 194.19C409.961 192.452 417.965 192.8 425.463 195.2C428.013 195.98 429.463 201.31 427.803 203.39C426.863 204.57 426.023 203.76 425.213 203.34C420.603 200.97 415.633 200.74 410.603 200.9C397.773 201.3 389.193 210.41 389.203 223.56C389.213 236.71 397.673 245.96 410.403 246.5C420.523 246.94 420.523 246.94 420.533 236.95V235.45C420.533 227.99 420.533 227.96 413.013 227.95C410.453 227.95 408.173 228.38 408.123 224.36C408.073 220.17 410.603 220.92 413.003 220.92C417.333 220.92 421.663 221 426.003 220.92C428.393 220.85 429.273 221.79 429.203 224.14C429.063 228.2 429.143 232.39 429.153 236.55Z" fill="#0067A0"/>
    <path d="M530.773 223.58C537.773 232.19 540.773 242.82 546.053 252.58C536.853 253.79 536.843 253.8 533.523 246.38C531.523 241.83 529.623 237.21 527.523 232.71C525.075 227.755 519.349 225.361 514.103 227.1C512.213 227.74 512.723 229.1 512.713 230.34C512.663 236.66 512.443 242.99 512.773 249.29C512.973 253 511.193 253.24 508.353 253.2C505.723 253.2 504.173 252.99 504.223 249.51C504.423 232.38 504.363 215.25 504.223 198.12C504.223 195.26 504.723 193.89 508.013 194.12C514.153 194.51 520.363 194.03 526.453 194.72C535.683 195.72 540.293 199.89 541.303 206.92C542.463 214.89 539.463 219.65 530.773 223.58ZM523.123 219.17C524.942 218.97 526.699 218.395 528.283 217.48C531.147 215.933 532.788 212.805 532.433 209.57C532.203 206.28 530.273 204.13 527.273 202.85C525.404 202.175 523.43 201.836 521.443 201.85C512.653 201.44 512.653 201.42 512.653 210.2C512.643 220.47 512.643 220.46 523.123 219.17Z" fill="#0067A0"/>
    <path d="M489.633 216.48C489.213 222.55 490.483 229.91 488.793 237.14C486.033 248.88 478.373 254.37 465.363 254.06C454.083 253.79 446.033 247.19 444.573 235.76C442.893 222.7 444.033 209.5 443.993 196.37C443.993 192.43 447.463 194.62 449.363 194.19C451.733 193.67 452.523 194.83 452.493 197.19C452.393 206.836 452.393 216.486 452.493 226.14C452.464 229.132 452.709 232.121 453.223 235.07C454.803 243.13 459.463 246.67 467.673 246.41C474.953 246.17 479.503 242.18 480.533 234.41C482.093 222.65 481.043 210.81 481.163 199C481.163 195.69 481.433 193.94 485.573 194C489.573 194 489.773 195.77 489.683 198.82C489.513 204.27 489.633 209.76 489.633 216.48Z" fill="#0067A0"/>
    <path d="M336.563 223.2C336.563 214.71 336.663 206.2 336.503 197.73C336.453 194.9 337.293 194.01 340.173 194.07C348.833 194.26 357.503 194.29 366.173 194.07C369.253 193.99 369.733 195.25 369.703 197.87C369.673 200.49 369.383 201.96 366.233 201.87C360.573 201.66 354.903 201.87 349.233 201.74C346.433 201.65 345.173 202.07 345.133 205.42C344.993 218.98 344.853 218.97 358.463 218.86C360.123 218.86 361.793 218.86 363.463 218.86C366.093 218.76 367.723 219.15 367.653 222.6C367.593 225.88 366.353 226.44 363.513 226.33C358.693 226.14 353.853 226.4 349.023 226.23C346.343 226.14 345.023 226.78 345.213 229.79C345.458 233.946 345.458 238.113 345.213 242.27C345.023 245.14 346.213 245.58 348.673 245.53C354.503 245.42 360.343 245.65 366.163 245.44C369.223 245.32 369.733 246.68 369.693 249.3C369.693 251.74 369.583 253.3 366.343 253.2C357.513 252.98 348.683 253.02 339.853 253.2C337.083 253.25 336.513 252.2 336.543 249.73C336.633 240.86 336.563 232.03 336.563 223.2Z" fill="#0067A0"/>
    <path d="M303.363 254.08C300.913 254.39 298.153 253.64 295.423 252.97C291.553 252.02 290.423 249.26 291.843 245.48C292.663 243.31 293.843 244.48 295.003 244.82C298.693 245.91 302.423 246.82 306.313 246.3C310.543 245.75 314.113 244.04 315.313 239.61C316.653 234.76 314.553 231.13 310.363 228.74C306.173 226.35 302.083 224.47 298.043 222.17C292.183 218.83 289.853 213.56 290.683 207.01C291.513 200.46 295.523 196.26 301.793 194.26C307.553 192.41 313.303 193.21 319.063 194.34C323.393 195.19 321.463 198.41 321.303 200.68C321.063 203.98 318.753 202.29 317.243 201.85C313.89 200.811 310.35 200.521 306.873 201C303.293 201.51 300.613 203.2 299.763 207C298.913 210.8 300.833 213.16 303.683 214.9C306.793 216.79 310.113 218.33 313.343 220.03C318.993 223.03 323.633 226.81 324.583 233.68C326.333 246.11 318.133 254.2 303.363 254.08Z" fill="#0067A0"/>
    <path d="M630.833 254.07C627.833 254.31 624.833 253.27 621.733 252.54C619.613 252.04 618.883 251.2 619.033 248.78C619.273 244.94 620.103 243.46 624.253 245.11C628.279 246.851 632.813 247.012 636.953 245.56C640.263 244.33 642.653 242.13 643.263 238.48C643.927 234.91 642.236 231.315 639.063 229.55C635.713 227.42 632.063 225.78 628.523 223.94C622.593 220.85 618.173 216.79 618.213 209.41C618.273 200.18 624.553 193.95 634.873 193.21C638.2 193.017 641.538 193.283 644.793 194C649.403 194.93 650.613 197.49 648.633 201.69C647.773 203.52 646.853 202.53 645.883 202.18C642.257 200.906 638.382 200.505 634.573 201.01C631.223 201.43 628.443 202.81 627.523 206.35C626.603 209.89 627.983 212.94 631.143 214.85C633.833 216.49 636.673 217.85 639.483 219.3C650.293 224.75 654.143 231.43 651.923 240.92C649.893 249.52 642.653 254.08 630.833 254.07Z" fill="#0067A0"/>
    <path d="M99.651 236.054C154.693 236.054 199.314 191.434 199.314 136.391C199.314 81.3489 154.693 36.7283 99.651 36.7283C44.6087 36.7283 -0.0119934 81.3489 -0.0119934 136.391C-0.0119934 191.434 44.6087 236.054 99.651 236.054Z" fill="#0067A0"/>
    <path d="M239.06 97.7103C239.06 151.666 195.32 195.406 141.364 195.406C87.408 195.406 43.668 151.666 43.668 97.7103C43.668 43.7543 87.408 0.0142822 141.364 0.0142822C195.32 0.0142822 239.06 43.7543 239.06 97.7103ZM141.364 14.7663C95.555 14.7663 58.42 51.9013 58.42 97.7103C58.42 143.519 95.555 180.654 141.364 180.654C187.173 180.654 224.308 143.519 224.308 97.7103C224.308 51.9013 187.173 14.7663 141.364 14.7663Z" fill="#0098EC"/>
    </g>
    <defs>
    <clipPath id="clip0_109_25">
    <rect width="812" height="254" fill="white"/>
    </clipPath>
    </defs>
</svg>