<svg width="528" height="160" viewBox="0 0 528 160" fill="none" xmlns="http://www.w3.org/2000/svg">
    <g clip-path="url(#clip0_110_57)">
        <path fill-rule="evenodd" clip-rule="evenodd"
            d="M12.6279 0.000366211H91.2135C97.7931 0.000366211 103.841 4.97564 103.841 12.6503V37.9503H68.221V25.3003H35.6204V35.7871C40.2622 38.2747 100.281 62.493 100.709 62.8175C103.625 64.8725 103.733 66.603 103.733 69.9514V101.957C103.841 101.957 103.625 101.957 103.733 101.957C103.733 109.307 98.3339 115.04 91.9706 115.04C91.9706 114.932 91.9706 115.148 91.9706 115.04H11.6545C6.03927 115.143 0.000457764 109.307 0.000457764 103.255V75.4675H0.43309V75.0349H35.1878V75.4675H35.6204V89.8434H68.221V79.3612C60.6634 76.6572 9.06768 55.4628 5.39933 53.9531L4.85854 53.6286C4.9667 53.7368 1.72647 52.7634 0.108612 46.4902V12.2177C0.000454061 4.86748 7.01719 0.000366211 12.6279 0.000366211ZM241.575 115.143H276.763V73.4125H277.195V72.9799H313.681V115.148H348.76V114.715H349.192V0.433014H348.76V0.000366211H313.681V42.601H276.763V0.000366211H241.575V115.143ZM118.735 102.931C118.735 108.983 124.134 115.143 130.502 115.143H214.698C221.931 115.143 226.46 108.55 226.46 102.931V0.000366211H190.84V87.6848H153.927V0.000366211H118.735V102.931ZM421.081 37.9457L430.689 72.9799H410.721L421.086 37.9503L421.081 37.9457ZM361.175 115.143H397.228L401.545 99.145H439.757L444.074 115.143H480.126L439.324 0.000366211H401.978C396.687 15.138 361.175 108.55 361.175 115.143Z"
            fill="#0067A0" />
        <path
            d="M527.08 0.000366211H491.893V115.143H527.08V0.000366211ZM132.989 154.067C134.711 155.148 137.09 156.013 139.677 156.013C143.562 156.013 145.829 153.958 145.829 151.038C145.829 148.334 144.319 146.712 140.326 145.31C135.576 143.58 132.552 141.092 132.552 136.982C132.552 132.444 136.333 128.983 142.052 128.983C144.968 128.983 147.235 129.632 148.528 130.389L147.447 133.526C146.59 132.985 144.535 132.12 141.949 132.12C137.951 132.12 136.442 134.499 136.442 136.55C136.442 139.254 138.168 140.66 142.269 142.174C147.235 144.121 149.718 146.5 149.718 150.826C149.718 155.365 146.37 159.254 139.461 159.254C136.653 159.254 133.526 158.393 132.016 157.311L132.985 154.067L132.989 154.067ZM170.872 144.986H159.538V155.585H172.17V158.717H155.653V129.42H171.521V132.552H159.538V141.854H170.872V144.986ZM200.34 157.42C197.435 158.483 194.367 159.032 191.273 159.042C186.848 159.042 183.179 157.96 180.372 155.148C177.893 152.665 176.271 148.771 176.271 144.229C176.271 135.473 182.314 129.096 192.134 129.096C195.482 129.096 198.182 129.848 199.479 130.389L198.506 133.526C196.996 132.769 194.946 132.228 192.03 132.228C184.91 132.228 180.268 136.662 180.268 144.012C180.268 151.475 184.689 155.797 191.597 155.797C194.081 155.797 195.807 155.473 196.672 155.04V146.284H190.737V143.255H200.34V157.42ZM210.705 129.416V146.825C210.705 153.314 213.617 156.122 217.506 156.122C221.823 156.122 224.626 153.201 224.626 146.825V129.416H228.407V146.5C228.407 155.473 223.657 159.15 217.289 159.15C211.246 159.15 206.816 155.797 206.816 146.608V129.308H210.705V129.416ZM235.852 129.745C238.242 129.337 240.661 129.118 243.085 129.091C247.078 129.091 249.777 129.848 251.503 131.471C252.909 132.769 253.77 134.824 253.77 137.095C253.77 140.88 251.292 143.472 248.268 144.553V144.661C250.534 145.419 251.828 147.582 252.477 150.61C253.446 154.716 254.099 157.528 254.744 158.609H250.859C250.426 157.744 249.777 155.256 248.917 151.579C248.051 147.582 246.433 146.067 242.977 145.856H239.633V158.501H235.852V129.745ZM239.633 143.147H243.518C247.511 143.147 250.102 140.88 250.102 137.636C250.102 133.85 247.402 132.228 243.41 132.228C241.575 132.228 240.278 132.336 239.633 132.552V143.147ZM265.001 149.529L261.977 158.722H258.092L268.128 129.42H272.662L282.702 158.717H278.493L275.361 149.529H264.996H265.001ZM274.712 146.5L271.801 138.073C271.152 136.121 270.719 134.391 270.287 132.769H270.179C269.75 134.499 269.318 136.338 268.669 138.068L265.753 146.5H274.712ZM287.777 129.853C290.414 129.395 293.086 129.178 295.762 129.204C301.161 129.204 305.046 130.502 307.637 132.881C310.337 135.256 311.846 138.609 311.846 143.368C311.846 148.122 310.337 152.021 307.637 154.72C304.83 157.424 300.296 158.934 294.685 158.934C291.981 158.934 289.719 158.826 287.777 158.609V129.853ZM291.553 155.694C292.527 155.802 293.928 155.91 295.33 155.91C303.428 155.91 307.745 151.367 307.745 143.472C307.745 136.554 303.861 132.124 295.871 132.124C293.928 132.124 292.414 132.34 291.445 132.557V155.694H291.553ZM342.5 143.688C342.5 153.747 336.349 159.15 328.899 159.15C321.125 159.15 315.731 153.098 315.731 144.233C315.731 134.932 321.454 128.879 329.332 128.879C337.318 128.879 342.5 135.04 342.5 143.693V143.688ZM319.724 144.121C319.724 150.394 323.072 156.018 329.116 156.018C335.159 156.018 338.507 150.502 338.507 143.801C338.507 137.96 335.488 131.795 329.224 131.795C322.856 131.903 319.724 137.744 319.724 144.121ZM348.327 129.745C350.717 129.337 353.136 129.118 355.56 129.091C359.553 129.091 362.252 129.848 363.978 131.471C365.385 132.769 366.245 134.824 366.245 137.095C366.245 140.88 363.767 143.472 360.743 144.553V144.661C363.01 145.419 364.303 147.582 364.952 150.61C365.925 154.716 366.574 157.528 367.219 158.609H363.334C362.901 157.744 362.252 155.256 361.392 151.579C360.526 147.582 358.909 146.067 355.452 145.856H351.892V158.501H348.115V129.745H348.327ZM352.108 143.147H355.993C359.986 143.147 362.577 140.88 362.577 137.636C362.577 133.85 359.877 132.228 355.885 132.228C354.05 132.228 352.753 132.336 352.108 132.552L352.108 143.147ZM377.471 149.529L374.452 158.722H370.567L380.603 129.42H385.137L395.177 158.717H391.185L388.053 149.529H377.471ZM387.079 146.5L384.168 138.073C383.519 136.121 383.086 134.391 382.654 132.769H382.546C382.117 134.499 381.685 136.338 381.036 138.068L378.12 146.5H387.079Z"
            fill="#0067A0" />
    </g>
    <defs>
        <clipPath id="clip0_110_57">
            <rect width="527.08" height="159.253" fill="white" />
        </clipPath>
    </defs>
</svg>