<svg width="140" height="36" viewBox="0 0 140 36" fill="none" xmlns="http://www.w3.org/2000/svg">
    <g clip-path="url(#clip0_114_27)">
        <path
            d="M42.5801 -0.000488281L43.5101 0.0795117C45.6019 0.255623 47.6397 0.836377 49.5101 1.78951C51.1408 2.64266 52.7082 3.61182 54.2001 4.68951C55.8701 5.83951 57.5301 6.99951 59.3101 7.99951C61.4835 9.23899 63.8498 10.1044 66.3101 10.5595C67.3101 10.7495 68.3101 10.8395 69.3101 10.9395C70.3101 11.0395 71.3101 11.0995 72.3701 11.1695C72.8901 11.1695 73.4201 11.2395 73.9401 11.2495C75.4001 11.2495 76.8501 11.3295 78.3101 11.3295C78.9501 11.3295 79.5901 11.2695 80.2401 11.2195C80.3807 11.1972 80.5162 11.1497 80.6401 11.0795C84.5609 8.68191 88.6365 6.54722 92.8401 4.68951C95.1888 3.63329 97.6289 2.79315 100.13 2.17951C101.343 1.91593 102.573 1.7322 103.81 1.62951C105.32 1.50454 106.837 1.48449 108.35 1.56951C109.8 1.66951 111.25 1.78951 112.7 1.95951C115.7 2.29951 118.7 2.87951 121.61 3.41951C123.61 3.77951 125.5 4.14951 127.45 4.41951C128.94 4.64951 130.45 4.82951 131.94 4.94951C133.081 5.03613 134.226 5.06283 135.37 5.02951C136.627 5.00949 137.875 4.81772 139.08 4.45951C139.201 4.42902 139.325 4.40895 139.45 4.39951C139.5 4.39951 139.55 4.39951 139.61 4.44951C139.67 4.49951 139.56 4.57951 139.52 4.60951C139.357 4.72018 139.182 4.81399 139 4.88951C138.3 5.08951 137.6 5.31951 136.89 5.45951C134.874 5.78087 132.828 5.87813 130.79 5.74951C129.79 5.74951 128.87 5.67951 127.92 5.61951C126.82 5.54951 125.72 5.44951 124.62 5.35951L121.45 5.05951L118.67 4.79951C117.89 4.72951 117.11 4.66951 116.32 4.63951C114.79 4.57951 113.32 4.51951 111.74 4.52951C109.219 4.51358 106.704 4.77515 104.24 5.30951C102.188 5.80852 100.181 6.4775 98.2401 7.30951C96.1501 8.15951 94.0701 8.99951 91.9101 9.64951C89.2892 10.4598 86.6164 11.0912 83.9101 11.5395C82.3414 11.8229 80.7535 11.9867 79.1601 12.0295C78.9622 12.0345 78.7677 12.0822 78.5901 12.1695C76.8838 12.9584 75.0655 13.4779 73.2001 13.7095C72.0331 13.8608 70.8542 13.8977 69.6801 13.8195C67.4969 13.6554 65.3569 13.1247 63.3501 12.2495C61.439 11.3919 59.6419 10.3002 58.0001 8.99951C55.8228 7.33368 53.344 6.10446 50.7001 5.37951C49.2625 4.97635 47.7942 4.69206 46.3101 4.52951C44.6345 4.33131 42.9465 4.25777 41.2601 4.30951C39.8501 4.35951 38.4301 4.43951 37.0201 4.57951C35.3901 4.73951 33.7601 4.94951 32.1301 5.17951C30.7401 5.37951 29.3501 5.62951 27.9701 5.86951C26.2301 6.16951 24.4901 6.48951 22.7501 6.76951C21.4101 6.97951 20.0601 7.14951 18.7501 7.30951C17.8601 7.41951 16.9701 7.47951 16.0701 7.52951C14.8501 7.52951 13.6301 7.62951 12.4101 7.63951C10.7949 7.64649 9.18111 7.54291 7.58007 7.32951C6.09789 7.15985 4.63485 6.85184 3.21007 6.40951C2.50966 6.20426 1.83775 5.91198 1.21007 5.53951C1.08001 5.4481 0.956387 5.34787 0.840071 5.23951C0.807407 5.17887 0.780618 5.11525 0.760071 5.04951C0.813897 5.02438 0.87121 5.00753 0.930071 4.99951L1.77007 5.23951C3.14301 5.67771 4.54697 6.01199 5.97007 6.23951C6.97007 6.37951 7.97007 6.45951 8.90007 6.52951C9.56619 6.56755 10.2339 6.56755 10.9001 6.52951C12.1501 6.52951 13.4001 6.40951 14.6401 6.29951C16.6108 6.10175 18.5655 5.76762 20.4901 5.29951C23.0001 4.72951 25.3701 3.99951 27.7501 3.21951C30.1301 2.43951 32.6901 1.65951 35.2101 1.06951C36.4901 0.779512 37.7601 0.499512 39.0501 0.269512C39.8401 0.129512 40.6401 0.109512 41.4401 -0.000488281H41.7001H42.5801Z"
            fill="#0098EC" />
        <path
            d="M6.10352e-05 29.1395C0.450061 29.1395 0.900061 29.1395 1.35006 29.1395H3.59006C3.76006 29.1395 3.84006 29.1995 3.86006 29.3695C3.88006 29.5395 3.86006 29.5595 3.92006 29.6595C4.04314 30.1775 4.30886 30.6507 4.68709 31.0254C5.06532 31.4001 5.54094 31.6613 6.06006 31.7795C7.23076 32.1546 8.48936 32.1546 9.66006 31.7795C9.94856 31.6953 10.2165 31.5523 10.4471 31.3596C10.6777 31.1668 10.866 30.9285 11.0001 30.6595C11.1922 30.2967 11.2553 29.8793 11.179 29.4759C11.1027 29.0725 10.8915 28.7071 10.5801 28.4395C10.0895 28.0358 9.51586 27.7456 8.90006 27.5895C7.82006 27.2795 6.73006 26.9995 5.64006 26.7095C4.59507 26.4605 3.58669 26.0774 2.64006 25.5695C2.03024 25.2607 1.49728 24.8193 1.08026 24.2777C0.663237 23.7361 0.372737 23.108 0.230061 22.4395C-0.0221247 21.4464 0.0235625 20.401 0.361428 19.4336C0.699294 18.4662 1.31439 17.6197 2.13006 16.9995C3.15734 16.1434 4.39845 15.5834 5.72006 15.3795C6.58824 15.2579 7.46788 15.2412 8.34006 15.3295C9.38271 15.3977 10.4019 15.6695 11.3401 16.1295C12.2768 16.599 13.085 17.2897 13.6948 18.1417C14.3046 18.9937 14.6977 19.9815 14.8401 21.0195C14.8452 21.1161 14.8452 21.2129 14.8401 21.3095H14.7001C14.0101 21.3095 13.3201 21.3095 12.6301 21.3095C12.2546 21.3338 11.8809 21.2397 11.5617 21.0406C11.2424 20.8415 10.9935 20.5474 10.8501 20.1995C10.6455 19.7049 10.2589 19.3076 9.77006 19.0895C8.56076 18.4895 7.17423 18.3509 5.87006 18.6995C5.41759 18.795 5.00193 19.0181 4.67229 19.3424C4.34266 19.6667 4.11285 20.0787 4.01006 20.5295C3.90946 20.888 3.93619 21.2702 4.08569 21.6111C4.2352 21.9521 4.49825 22.2307 4.83006 22.3995C5.89304 22.9731 7.02578 23.4067 8.20006 23.6895C9.44665 23.9867 10.6699 24.3744 11.8601 24.8495C12.6769 25.1827 13.4083 25.6953 14.0001 26.3495C14.4672 26.894 14.8087 27.5346 15.0006 28.2259C15.1924 28.9172 15.2298 29.6422 15.1101 30.3495C14.9557 31.7264 14.3094 33.0012 13.2901 33.9395C12.4301 34.7039 11.3737 35.213 10.2401 35.4095C8.36799 35.827 6.41728 35.7233 4.60006 35.1095C3.43976 34.736 2.40535 34.0488 1.61119 33.1241C0.81703 32.1993 0.294049 31.073 0.100061 29.8695C0.100061 29.6795 0.030061 29.4895 6.10352e-05 29.2995V29.1395Z"
            fill="#0067A0" />
        <path
            d="M67.9401 21.7895C68.5423 21.1184 69.2947 20.5992 70.1358 20.2742C70.977 19.9492 71.883 19.8277 72.7801 19.9195C74.463 19.9994 76.0531 20.714 77.2301 21.9195C78.2114 22.8473 78.8375 24.0889 79.0001 25.4295C79.0302 25.879 79.0302 26.3301 79.0001 26.7795V35.3595H78.8601C78.1801 35.3595 77.5001 35.3595 76.8601 35.3595C76.6194 35.3629 76.3807 35.3163 76.159 35.2227C75.9373 35.129 75.7375 34.9904 75.5721 34.8156C75.4066 34.6408 75.2793 34.4336 75.1981 34.2071C75.1168 33.9806 75.0835 33.7396 75.1001 33.4995C75.1001 31.0395 75.1001 28.5695 75.1001 26.1095C75.1004 25.8172 75.0702 25.5256 75.0101 25.2395C74.9181 24.834 74.7151 24.462 74.4236 24.1652C74.1322 23.8685 73.764 23.6588 73.3601 23.5595C72.9422 23.4208 72.4989 23.3758 72.0616 23.4276C71.6244 23.4795 71.2039 23.6269 70.8301 23.8595C70.5658 24.0134 70.3419 24.2277 70.1767 24.4851C70.0115 24.7424 69.9099 25.0352 69.8801 25.3395C69.8435 25.618 69.8268 25.8987 69.8301 26.1795V35.3495H66.0001V35.0995C66.0001 32.1062 66.0001 29.1062 66.0001 26.0995C66.005 25.805 65.9849 25.5107 65.9401 25.2195C65.8942 24.8586 65.7508 24.5171 65.5253 24.2316C65.2997 23.9462 65.0006 23.7276 64.6601 23.5995C64.2611 23.4122 63.8258 23.3151 63.3851 23.3151C62.9443 23.3151 62.509 23.4122 62.1101 23.5995C61.724 23.7726 61.3961 24.0533 61.1655 24.4081C60.9349 24.7628 60.8115 25.1765 60.8101 25.5995C60.8101 26.5995 60.8101 27.5295 60.8101 28.4895C60.8101 30.6895 60.8101 32.8895 60.8101 35.0895C60.8101 35.2795 60.8101 35.3296 60.5701 35.3296H56.8701C56.8701 35.2496 56.8701 35.1995 56.8701 35.1395C56.8701 32.1395 56.8701 29.1395 56.8701 26.0695C56.8457 24.8338 57.1641 23.6154 57.7901 22.5495C58.4063 21.5823 59.3234 20.8445 60.4001 20.4495C62.0596 19.7304 63.9214 19.6276 65.6501 20.1595C66.4683 20.4671 67.2042 20.96 67.8001 21.5995C67.8545 21.6567 67.9016 21.7206 67.9401 21.7895Z"
            fill="#0067A0" />
        <path
            d="M55.43 35.3795H51.54C51.4793 35.3884 51.4174 35.3736 51.3672 35.3383C51.3169 35.3029 51.2822 35.2497 51.27 35.1895C50.85 33.9795 50.42 32.7795 50 31.5695C49.9878 31.504 49.9509 31.4457 49.8969 31.4066C49.843 31.3675 49.7761 31.3507 49.71 31.3595H42.65C42.5707 31.3478 42.4899 31.3673 42.4246 31.4139C42.3594 31.4605 42.3147 31.5306 42.3 31.6095C41.88 32.8095 41.45 33.9995 41.03 35.1895C41.0179 35.2497 40.9831 35.3029 40.9329 35.3383C40.8827 35.3736 40.8208 35.3884 40.76 35.3795H36.91C37.08 34.8995 37.24 34.4395 37.41 33.9795C39.3634 28.4928 41.3167 23.0062 43.27 17.5195C43.3811 17.2152 43.5361 16.9289 43.73 16.6695C43.9131 16.449 44.1446 16.2739 44.4066 16.1577C44.6685 16.0414 44.9537 15.9873 45.24 15.9995C46.24 15.9995 47.33 15.9995 48.38 15.9995C48.53 15.9995 48.54 16.0895 48.58 16.1895L51.19 23.4695C52.57 27.3628 53.9567 31.2495 55.35 35.1295C55.3829 35.2107 55.4096 35.2943 55.43 35.3795ZM46.2 20.8595H46.14L43.62 27.9295H48.71L46.2 20.8595Z"
            fill="#0067A0" />
        <path
            d="M127.2 24.3095C127.27 23.7742 127.436 23.2559 127.69 22.7795C128.255 21.8064 129.112 21.0364 130.14 20.5795C131.133 20.1071 132.221 19.8709 133.32 19.8895C134.783 19.8521 136.231 20.1968 137.52 20.8895C138.029 21.1551 138.473 21.5307 138.819 21.9891C139.165 22.4475 139.404 22.977 139.52 23.5395C139.619 23.9457 139.672 24.3615 139.68 24.7795C139.68 28.2795 139.68 31.7795 139.68 35.2795V35.4395H139.46C138.82 35.4395 138.17 35.4395 137.53 35.4395C137.316 35.453 137.103 35.408 136.912 35.3094C136.722 35.2107 136.562 35.0621 136.45 34.8795C135.88 35.0695 135.36 35.2895 134.81 35.4195C133.908 35.5961 132.985 35.6433 132.07 35.5595C131.186 35.5261 130.315 35.333 129.5 34.9895C128.597 34.6176 127.842 33.9562 127.355 33.1091C126.868 32.2621 126.677 31.2773 126.81 30.3095C126.884 29.6768 127.103 29.0698 127.45 28.5356C127.797 28.0014 128.262 27.5544 128.81 27.2295C129.597 26.7315 130.485 26.417 131.41 26.3095C132.47 26.1295 133.52 25.9495 134.57 25.7395C134.832 25.6761 135.081 25.5715 135.31 25.4295C135.484 25.3424 135.632 25.2098 135.737 25.0457C135.842 24.8816 135.901 24.6921 135.907 24.4974C135.913 24.3026 135.866 24.1098 135.772 23.9394C135.677 23.769 135.539 23.6274 135.37 23.5295C135.019 23.2943 134.619 23.1437 134.2 23.0895C133.533 22.9704 132.846 23.015 132.2 23.2195C131.944 23.288 131.706 23.4135 131.506 23.5867C131.305 23.7598 131.146 23.9762 131.04 24.2195C131.025 24.2451 131.005 24.2672 130.981 24.2845C130.957 24.3017 130.929 24.3136 130.9 24.3195H127.33L127.2 24.3095ZM135.95 27.9095C135.52 28.0695 135.12 28.2295 134.71 28.3595C134.435 28.4395 134.154 28.4996 133.87 28.5395C133.15 28.6895 132.43 28.8195 131.71 28.9795C131.484 29.0235 131.271 29.1172 131.086 29.2539C130.901 29.3905 130.749 29.5666 130.64 29.7695C130.504 30.0049 130.423 30.2674 130.4 30.5382C130.378 30.8089 130.416 31.0813 130.512 31.3356C130.608 31.5899 130.758 31.8198 130.953 32.009C131.148 32.1981 131.383 32.3417 131.64 32.4295C132.469 32.7169 133.367 32.7414 134.21 32.4995C134.692 32.4338 135.134 32.1944 135.453 31.8262C135.771 31.458 135.944 30.9863 135.94 30.4995C136.01 29.6195 135.94 28.7495 135.94 27.8695C135.94 27.8795 135.94 27.8795 136 27.9095H135.95Z"
            fill="#0067A0" />
        <path
            d="M94.5101 28.7295H83.8801C83.8801 28.9695 83.9501 29.1895 83.9901 29.4095C84.1335 30.2754 84.5891 31.0588 85.2708 31.6116C85.9526 32.1644 86.8132 32.4482 87.6901 32.4095C88.0253 32.3996 88.3595 32.3662 88.6901 32.3095C89.2061 32.2135 89.6805 31.9623 90.0501 31.5895C90.2129 31.4082 90.3938 31.244 90.5901 31.0995C90.7905 30.9401 91.0277 30.8335 91.2801 30.7895C92.2801 30.7895 93.2801 30.7895 94.2801 30.7895C94.1319 31.3766 93.8995 31.9391 93.5901 32.4595C93.1275 33.2607 92.4895 33.9468 91.724 34.4663C90.9586 34.9859 90.0854 35.3254 89.1701 35.4595C88.0777 35.6796 86.9524 35.6796 85.8601 35.4595C84.7597 35.237 83.7352 34.7345 82.8856 34.0005C82.0361 33.2666 81.3901 32.326 81.0101 31.2695C80.5914 30.131 80.3978 28.9219 80.4401 27.7095C80.4138 26.6341 80.5555 25.5612 80.8601 24.5295C81.1268 23.6425 81.5847 22.8247 82.2014 22.1336C82.8182 21.4425 83.5789 20.895 84.4301 20.5295C85.481 20.0198 86.6427 19.7811 87.8095 19.8353C88.9762 19.8894 90.1109 20.2347 91.1101 20.8395C91.8912 21.3015 92.5682 21.9204 93.0983 22.657C93.6284 23.3936 94.0001 24.2321 94.1901 25.1195C94.4644 26.2647 94.5656 27.4444 94.4901 28.6195C94.5007 28.6554 94.5075 28.6923 94.5101 28.7295ZM90.7701 26.1595C90.9501 24.6995 89.4001 23.0895 87.7701 22.9995C86.8512 22.9191 85.938 23.2067 85.231 23.7993C84.5241 24.3918 84.0814 25.2407 84.0001 26.1595H90.7701Z"
            fill="#0067A0" />
        <path
            d="M16.7801 20.2495H20.4101C20.6801 20.2495 20.6801 20.2495 20.6801 20.5195C20.6801 23.3695 20.6801 26.2195 20.6801 29.0695C20.6796 29.542 20.7401 30.0125 20.8601 30.4695C20.9617 30.9207 21.2165 31.3227 21.5812 31.6071C21.9458 31.8915 22.3978 32.0408 22.8601 32.0295C23.2785 32.0584 23.6986 32.0109 24.1001 31.8895C24.63 31.7376 25.0962 31.4174 25.4281 30.9772C25.76 30.537 25.9397 30.0008 25.9401 29.4495C25.9401 28.2995 25.9401 27.1495 25.9401 25.9995V22.2295C25.9375 22.024 25.961 21.8191 26.0101 21.6195C26.08 21.2525 26.2724 20.9202 26.5558 20.6768C26.8392 20.4333 27.1968 20.2933 27.5701 20.2795C28.2801 20.2195 29.0101 20.2795 29.7601 20.2795V20.4795C29.7601 23.1462 29.7601 25.8128 29.7601 28.4795C29.7862 29.5767 29.6343 30.6709 29.3101 31.7195C29.0422 32.6571 28.5121 33.4986 27.7823 34.1452C27.0524 34.7918 26.1531 35.2166 25.1901 35.3695C23.701 35.689 22.1548 35.6201 20.7001 35.1695C19.7864 34.8978 18.9644 34.3815 18.3229 33.6765C17.6814 32.9716 17.2447 32.1047 17.0601 31.1695C16.872 30.4614 16.7746 29.7322 16.7701 28.9995C16.7701 26.1695 16.7701 23.3395 16.7701 20.5095C16.7701 20.3995 16.7801 20.3395 16.7801 20.2495Z"
            fill="#0067A0" />
        <path
            d="M125.65 30.7195C125.51 31.3707 125.253 31.991 124.89 32.5495C124.425 33.2923 123.809 33.929 123.082 34.4182C122.355 34.9075 121.533 35.2384 120.67 35.3895C119.109 35.7286 117.483 35.5927 116 34.9995C115.195 34.6655 114.466 34.1715 113.858 33.5475C113.249 32.9236 112.774 32.1826 112.46 31.3695C111.924 30.1665 111.659 28.8606 111.684 27.5439C111.708 26.2273 112.021 24.932 112.6 23.7495C113.09 22.6626 113.863 21.7268 114.837 21.0393C115.811 20.3517 116.952 19.9375 118.14 19.8395C119.128 19.7003 120.134 19.7776 121.089 20.066C122.044 20.3544 122.924 20.8469 123.67 21.5095C124.432 22.2258 124.994 23.129 125.3 24.1295C125.3 24.1295 125.3 24.1995 125.3 24.2595H121.84C121.77 24.2595 121.65 24.2595 121.62 24.1795C121.418 23.8506 121.143 23.5718 120.818 23.364C120.492 23.1562 120.124 23.0247 119.74 22.9795C118.889 22.828 118.012 22.9324 117.22 23.2795C116.781 23.4738 116.39 23.7628 116.075 24.1259C115.76 24.4889 115.53 24.917 115.4 25.3795C114.912 26.865 114.958 28.4743 115.53 29.9295C115.804 30.719 116.346 31.387 117.063 31.8166C117.78 32.2462 118.625 32.4101 119.45 32.2795C119.867 32.2694 120.277 32.1756 120.657 32.0038C121.036 31.8321 121.377 31.5857 121.66 31.2795C121.833 31.0899 122.045 30.9406 122.282 30.8421C122.518 30.7436 122.774 30.6983 123.03 30.7095H125.61L125.65 30.7195Z"
            fill="#0067A0" />
        <path
            d="M35.5601 15.9995V35.3795H31.6201C31.6201 35.3195 31.6201 35.2495 31.6201 35.1795V18.0995C31.6118 17.7221 31.6834 17.3473 31.8301 16.9995C31.9351 16.7417 32.1132 16.5201 32.3423 16.3621C32.5715 16.204 32.8418 16.1162 33.1201 16.1095C33.9301 15.9995 34.7401 15.9995 35.5601 15.9995Z"
            fill="#0067A0" />
        <path
            d="M104.4 20.2295V24.0695H104.11C103.219 24.0368 102.331 24.2007 101.51 24.5495C101.045 24.7346 100.649 25.0608 100.378 25.4822C100.107 25.9036 99.975 26.3992 100 26.8995C100 29.6195 100 32.3395 100 35.0595V35.3495H96.1001C96.1001 35.2895 96.1001 35.2295 96.1001 35.1695C96.1001 32.5595 96.1001 29.9495 96.1001 27.3395C96.0802 26.3146 96.2602 25.2956 96.6301 24.3395C97.2264 22.9482 98.3266 21.8337 99.7101 21.2195C100.802 20.7136 101.979 20.4152 103.18 20.3395C103.55 20.2595 104 20.2595 104.4 20.2295Z"
            fill="#0067A0" />
        <path
            d="M106.15 35.3495V35.0995C106.15 30.8395 106.15 26.5829 106.15 22.3295C106.12 21.8685 106.228 21.4091 106.46 21.0095C106.584 20.7953 106.76 20.6155 106.971 20.4863C107.183 20.3571 107.423 20.2826 107.67 20.2695C108.47 20.2695 109.27 20.2695 110.06 20.2695H110.11V35.3495H106.15Z"
            fill="#0067A0" />
        <path
            d="M106.2 18.9295C106.175 18.4865 106.175 18.0425 106.2 17.5995C106.259 17.1741 106.464 16.7823 106.779 16.4906C107.095 16.1989 107.501 16.0254 107.93 15.9995C108.65 15.9995 109.38 15.9995 110.12 15.9995V18.9295H106.2Z"
            fill="#0067A0" />
        <path
            d="M91.6 15.9996L90.34 17.2596C89.92 17.6796 89.49 18.0896 89.08 18.5196C88.969 18.6428 88.8332 18.7412 88.6816 18.8084C88.53 18.8756 88.3659 18.9101 88.2 18.9096H86.49C86.49 18.9096 86.49 18.9096 86.4 18.9096C86.31 18.9096 86.57 18.6496 86.65 18.5196L88 16.4496C88.0969 16.3017 88.2312 16.1822 88.3893 16.1031C88.5474 16.0241 88.7236 15.9884 88.9 15.9996H91.6Z"
            fill="#0067A0" />
    </g>
    <defs>
        <clipPath id="clip0_114_27">
            <rect width="139.68" height="35.662" fill="white" />
        </clipPath>
    </defs>
</svg>
    