<svg width="215" height="187" viewBox="0 0 215 187" fill="none" xmlns="http://www.w3.org/2000/svg">
  <g clip-path="url(#clip0_15_83)">
  <path fill-rule="evenodd" clip-rule="evenodd" d="M86.1806 22.6641C92.7771 17.1556 104.092 26.8654 117.115 42.0813C117.547 34.0675 117.979 26.0542 118.412 18.0409C108.67 7.1854 99.2541 -0.553908 90.9968 2.41441C88.8355 7.28444 86.6743 12.0618 84.5135 16.9314C85.0692 18.8425 85.6249 20.7533 86.1806 22.6641Z" fill="#003553"/>
  <path fill-rule="evenodd" clip-rule="evenodd" d="M59.8773 26.3147C63.5037 20.4342 72.1116 26.3527 79.6493 36.0918C83.0986 48.636 86.5479 59.1511 89.9972 71.6953C75.584 49.9581 64.497 41.626 56.736 46.6991C57.8447 40.0273 58.7687 32.9865 59.8773 26.3147Z" fill="#003553"/>
  <path fill-rule="evenodd" clip-rule="evenodd" d="M91.1725 2.59216C93.0851 37.1534 104.336 73.937 142.361 106.277C139.888 108.129 137.415 109.98 134.942 111.832C129.378 113.915 123.814 114.297 118.25 109.98C90.8016 83.5658 76.2118 51.4723 72.2552 21.4777C71.7969 17.2615 72.7258 13.9748 75.9645 11.4795C81.0338 8.51704 86.1032 5.55458 91.1725 2.59216Z" fill="#0067A0"/>
  <path fill-rule="evenodd" clip-rule="evenodd" d="M103.037 116.792C63.0304 114.231 37.0257 54.3213 60.0621 25.9928C56.8782 58.4792 73.242 91.0262 103.037 116.792Z" fill="#0067A0"/>
  <path fill-rule="evenodd" clip-rule="evenodd" d="M139.579 6.66553C156.067 6.66553 169.438 20.0145 169.438 36.4751C169.438 52.9356 156.067 66.2846 139.579 66.2846C123.09 66.2846 109.719 52.9356 109.719 36.4751C109.719 20.0145 123.09 6.66553 139.579 6.66553Z" fill="#0098EC"/>
  <path fill-rule="evenodd" clip-rule="evenodd" d="M134.2 5.92488C127.894 3.94992 121.589 1.97496 115.283 0C111.569 33.5761 122.573 66.5332 157.94 88.1324C160.66 82.5779 163.38 77.0233 166.1 71.4688C138.956 52.3983 130.426 25.613 134.2 5.92488Z" fill="#0067A0"/>
  <path fill-rule="evenodd" clip-rule="evenodd" d="M7.07299 156.673V139.27H0V136.941H17.015V139.27H9.91221V156.673H7.07299ZM18.5246 147.062C18.5246 143.787 19.4792 141.223 21.3936 139.372C23.3081 137.52 25.7772 136.592 28.8064 136.592C30.7857 136.592 32.5753 137.029 34.1649 137.897C35.7543 138.77 36.9689 139.983 37.8037 141.54C38.6385 143.093 39.0533 144.862 39.0533 146.833C39.0533 148.835 38.6185 150.627 37.7386 152.203C36.8589 153.783 35.6143 154.978 34.005 155.791C32.3903 156.604 30.6558 157.008 28.7914 157.008C26.767 157.008 24.9625 156.563 23.373 155.662C21.7784 154.767 20.5738 153.54 19.7541 151.987C18.9344 150.439 18.5246 148.794 18.5246 147.062ZM21.4537 147.104C21.4537 149.483 22.1484 151.353 23.538 152.722C24.9325 154.091 26.6771 154.776 28.7764 154.776C30.9157 154.776 32.6753 154.087 34.055 152.704C35.4344 151.321 36.1293 149.359 36.1293 146.819C36.1293 145.215 35.8294 143.814 35.2395 142.615C34.6497 141.416 33.785 140.488 32.6502 139.826C31.5106 139.169 30.236 138.839 28.8213 138.839C26.807 138.839 25.0776 139.473 23.628 140.745C22.1783 142.013 21.4537 144.136 21.4537 147.104ZM42.5973 156.673V136.941H45.4415V146.727L56.1033 136.941H59.9521L50.9448 144.935L60.3469 156.673H56.598L48.9555 146.686L45.4415 149.837V156.673H42.5973ZM63.2059 156.673V136.941H66.0452V156.673H63.2059ZM70.1891 147.062C70.1891 143.787 71.1437 141.223 73.0581 139.372C74.9725 137.52 77.4417 136.592 80.471 136.592C82.4504 136.592 84.2398 137.029 85.8295 137.897C87.4189 138.77 88.6334 139.983 89.4682 141.54C90.3031 143.093 90.7178 144.862 90.7178 146.833C90.7178 148.835 90.283 150.627 89.4033 152.203C88.5235 153.783 87.2789 154.978 85.6694 155.791C84.0547 156.604 82.3204 157.008 80.456 157.008C78.4315 157.008 76.6271 156.563 75.0377 155.662C73.443 154.767 72.2384 153.54 71.4186 151.987C70.599 150.439 70.1891 148.794 70.1891 147.062ZM73.1181 147.104C73.1181 149.483 73.8128 151.353 75.2025 152.722C76.5972 154.091 78.3415 154.776 80.441 154.776C82.5803 154.776 84.3398 154.087 85.7194 152.704C87.099 151.321 87.7938 149.359 87.7938 146.819C87.7938 145.215 87.4939 143.814 86.904 142.615C86.3143 141.416 85.4495 140.488 84.3148 139.826C83.1751 139.169 81.9004 138.839 80.4859 138.839C78.4714 138.839 76.7421 139.473 75.2925 140.745C73.8429 142.013 73.1181 144.136 73.1181 147.104ZM102.624 156.673V136.941H106.903L111.982 150.912C112.451 152.212 112.796 153.186 113.006 153.834C113.251 153.117 113.631 152.061 114.151 150.669L119.289 136.941H123.113V156.673H120.374V140.157L114.136 156.673H111.572L105.363 139.877V156.673H102.624ZM125.338 156.673L133.585 136.941H136.644L145.432 156.673H142.193L139.688 150.696H130.711L128.357 156.673H125.338ZM131.531 148.569H138.813L136.569 143.107C135.889 141.448 135.38 140.084 135.05 139.013C134.775 140.281 134.39 141.535 133.89 142.785L131.531 148.569ZM147.746 156.673V136.941H157.263C159.177 136.941 160.632 137.12 161.627 137.474C162.621 137.828 163.416 138.453 164.016 139.349C164.611 140.249 164.906 141.241 164.906 142.326C164.906 143.727 164.416 144.903 163.426 145.863C162.441 146.823 160.917 147.434 158.857 147.696C159.612 148.027 160.182 148.353 160.572 148.679C161.402 149.378 162.186 150.255 162.931 151.303L166.665 156.673H163.091L160.252 152.566C159.422 151.385 158.737 150.476 158.198 149.851C157.663 149.221 157.183 148.78 156.758 148.532C156.333 148.28 155.903 148.105 155.464 148.004C155.139 147.944 154.614 147.912 153.879 147.912H150.585V156.673H147.746ZM150.585 145.652H156.693C157.988 145.652 159.007 145.528 159.737 145.28C160.472 145.032 161.027 144.636 161.407 144.094C161.787 143.552 161.977 142.964 161.977 142.326C161.977 141.393 161.612 140.626 160.872 140.024C160.137 139.422 158.972 139.123 157.378 139.123H150.585V145.652ZM169.844 156.673V136.941H172.683V156.673H169.844ZM177.662 156.673V136.941H180.576L191.853 152.433V136.941H194.577V156.673H191.663L180.386 141.168V156.673H177.662ZM199.41 156.673V136.941H214.931V139.27H202.249V145.312H214.126V147.627H202.249V154.344H215.43V156.673H199.41Z" fill="#0067A0"/>
  <path fill-rule="evenodd" clip-rule="evenodd" d="M7.62314 180.188L10.165 179.966C10.2835 180.984 10.5634 181.817 11.0043 182.47C11.4455 183.124 12.1284 183.649 13.053 184.052C13.9778 184.454 15.021 184.653 16.1781 184.653C17.2072 184.653 18.1129 184.501 18.9001 184.198C19.6873 183.891 20.2754 183.474 20.6595 182.944C21.0436 182.409 21.238 181.831 21.238 181.202C21.238 180.562 21.0531 180.008 20.6785 179.53C20.3085 179.052 19.6968 178.655 18.848 178.333C18.2979 178.12 17.0934 177.788 15.2202 177.338C13.3518 176.889 12.0382 176.467 11.289 176.07C10.3168 175.563 9.59115 174.929 9.11229 174.176C8.63809 173.423 8.40096 172.581 8.40096 171.643C8.40096 170.621 8.69028 169.66 9.27357 168.77C9.85687 167.875 10.7103 167.198 11.8295 166.734C12.9534 166.275 14.1959 166.043 15.5664 166.043C17.0791 166.043 18.407 166.284 19.5641 166.772C20.7164 167.255 21.6031 167.969 22.2245 168.912C22.8409 169.854 23.1776 170.924 23.225 172.117L20.6406 172.311C20.4982 171.028 20.0288 170.052 19.2274 169.399C18.4259 168.741 17.2451 168.414 15.6803 168.414C14.049 168.414 12.8633 168.713 12.1141 169.309C11.3696 169.906 10.9949 170.625 10.9949 171.463C10.9949 172.197 11.2605 172.798 11.7868 173.267C12.3086 173.74 13.6601 174.223 15.8509 174.716C18.0419 175.213 19.5451 175.644 20.3607 176.013C21.5462 176.562 22.4235 177.253 22.9879 178.086C23.5522 178.924 23.832 179.89 23.832 180.979C23.832 182.063 23.5238 183.081 22.9026 184.037C22.2814 184.994 21.3898 185.737 20.228 186.272C19.0661 186.802 17.7572 187.067 16.3061 187.067C14.4615 187.067 12.9155 186.802 11.6731 186.263C10.4259 185.728 9.44901 184.923 8.73768 183.843C8.031 182.769 7.65639 181.547 7.62314 180.188ZM27.5735 186.722V166.388H42.2981V168.788H30.2671V175.014H41.5346V177.4H30.2671V184.321H42.7723V186.722H27.5735ZM56.0267 178.744V176.363L64.6526 176.349V183.891C63.3296 184.946 61.9638 185.737 60.5555 186.272C59.147 186.802 57.7006 187.067 56.221 187.067C54.2199 187.067 52.3989 186.641 50.7676 185.784C49.1315 184.932 47.8985 183.692 47.0638 182.077C46.2293 180.458 45.812 178.65 45.812 176.652C45.812 174.673 46.2293 172.827 47.0592 171.113C47.8842 169.394 49.0792 168.121 50.6347 167.288C52.1902 166.459 53.9828 166.043 56.0124 166.043C57.4825 166.043 58.8151 166.279 60.0053 166.757C61.1956 167.231 62.1298 167.894 62.8032 168.746C63.4814 169.598 63.9935 170.706 64.3492 172.074L61.9164 172.741C61.6082 171.705 61.2289 170.89 60.7783 170.299C60.323 169.707 59.6734 169.233 58.8292 168.878C57.9899 168.523 57.0509 168.343 56.0267 168.343C54.7936 168.343 53.7266 168.533 52.8304 168.907C51.9294 169.281 51.2085 169.773 50.6537 170.384C50.1036 170.995 49.6768 171.662 49.3686 172.396C48.8518 173.65 48.5909 175.014 48.5909 176.486C48.5909 178.299 48.9039 179.814 49.5298 181.036C50.1558 182.257 51.0664 183.162 52.2614 183.753C53.4564 184.345 54.7226 184.643 56.0646 184.643C57.2358 184.643 58.3739 184.416 59.4837 183.966C60.598 183.521 61.4374 183.043 62.0112 182.532V178.744H56.0267ZM81.99 166.388H84.6883V178.139C84.6883 180.179 84.456 181.803 83.9913 183.005C83.5265 184.208 82.6918 185.183 81.4827 185.936C80.2734 186.693 78.6895 187.067 76.7263 187.067C74.8198 187.067 73.2549 186.741 72.0457 186.083C70.8317 185.429 69.9639 184.478 69.447 183.233C68.9254 181.987 68.6693 180.293 68.6693 178.139V166.388H71.3628V178.124C71.3628 179.89 71.5287 181.192 71.8559 182.025C72.1832 182.863 72.7523 183.507 73.549 183.962C74.3504 184.416 75.332 184.643 76.4892 184.643C78.4713 184.643 79.8845 184.194 80.7287 183.294C81.568 182.399 81.99 180.676 81.99 178.124V166.388ZM89.2172 186.722V166.388H98.2463C100.063 166.388 101.443 166.573 102.386 166.937C103.33 167.302 104.084 167.946 104.653 168.869C105.217 169.797 105.497 170.819 105.497 171.937C105.497 173.381 105.032 174.593 104.093 175.582C103.159 176.571 101.713 177.201 99.759 177.471C100.475 177.812 101.016 178.148 101.386 178.484C102.173 179.204 102.917 180.108 103.624 181.187L107.166 186.722H103.776L101.082 182.489C100.295 181.273 99.6453 180.335 99.1331 179.691C98.6257 179.043 98.1704 178.588 97.7674 178.333C97.3643 178.072 96.9564 177.892 96.5391 177.788C96.2309 177.727 95.733 177.694 95.0358 177.694H91.9107V186.722H89.2172ZM91.9107 175.364H97.7057C98.934 175.364 99.9014 175.236 100.594 174.981C101.291 174.725 101.817 174.318 102.178 173.759C102.538 173.201 102.718 172.595 102.718 171.937C102.718 170.976 102.372 170.185 101.67 169.565C100.973 168.945 99.8681 168.637 98.3554 168.637H91.9107V175.364ZM107.484 186.722L115.309 166.388H118.211L126.548 186.722H123.475L121.099 180.562H112.582L110.349 186.722H107.484ZM113.36 178.37H120.269L118.14 172.741C117.495 171.033 117.011 169.626 116.698 168.523C116.437 169.83 116.072 171.122 115.598 172.41L113.36 178.37ZM128.701 186.722V166.388H135.714C137.298 166.388 138.507 166.488 139.342 166.682C140.509 166.947 141.505 167.434 142.33 168.135C143.401 169.044 144.208 170.199 144.739 171.61C145.275 173.021 145.54 174.63 145.54 176.444C145.54 177.987 145.36 179.355 144.995 180.548C144.634 181.741 144.174 182.731 143.605 183.512C143.041 184.293 142.425 184.908 141.751 185.354C141.083 185.803 140.272 186.144 139.323 186.376C138.37 186.608 137.279 186.722 136.051 186.722H128.701ZM131.394 184.321H135.743C137.085 184.321 138.142 184.198 138.906 183.947C139.669 183.697 140.276 183.346 140.732 182.892C141.372 182.257 141.87 181.396 142.225 180.321C142.581 179.242 142.761 177.94 142.761 176.401C142.761 174.275 142.41 172.642 141.713 171.501C141.011 170.355 140.163 169.593 139.162 169.205C138.441 168.926 137.275 168.788 135.676 168.788H131.394V184.321ZM148.428 176.818C148.428 173.442 149.334 170.8 151.15 168.893C152.966 166.985 155.309 166.028 158.183 166.028C160.061 166.028 161.759 166.478 163.266 167.373C164.774 168.272 165.927 169.522 166.719 171.127C167.511 172.727 167.904 174.55 167.904 176.581C167.904 178.645 167.492 180.491 166.657 182.115C165.822 183.744 164.642 184.975 163.115 185.813C161.583 186.651 159.938 187.067 158.169 187.067C156.248 187.067 154.536 186.608 153.028 185.68C151.515 184.757 150.372 183.493 149.595 181.893C148.817 180.297 148.428 178.602 148.428 176.818ZM151.207 176.86C151.207 179.313 151.866 181.239 153.185 182.65C154.508 184.061 156.163 184.766 158.154 184.766C160.184 184.766 161.853 184.056 163.162 182.631C164.471 181.206 165.13 179.185 165.13 176.567C165.13 174.914 164.846 173.471 164.286 172.235C163.726 170.999 162.906 170.043 161.83 169.361C160.748 168.684 159.539 168.343 158.197 168.343C156.286 168.343 154.645 168.997 153.27 170.308C151.895 171.615 151.207 173.802 151.207 176.86ZM171.423 186.722V166.388H180.452C182.268 166.388 183.648 166.573 184.592 166.937C185.536 167.302 186.29 167.946 186.859 168.869C187.423 169.797 187.703 170.819 187.703 171.937C187.703 173.381 187.238 174.593 186.299 175.582C185.365 176.571 183.919 177.201 181.965 177.471C182.681 177.812 183.222 178.148 183.591 178.484C184.379 179.204 185.123 180.108 185.83 181.187L189.372 186.722H185.982L183.288 182.489C182.501 181.273 181.851 180.335 181.339 179.691C180.831 179.043 180.376 178.588 179.973 178.333C179.57 178.072 179.162 177.892 178.745 177.788C178.437 177.727 177.939 177.694 177.242 177.694H174.117V186.722H171.423ZM174.117 175.364H179.912C181.14 175.364 182.107 175.236 182.8 174.981C183.497 174.725 184.023 174.318 184.383 173.759C184.744 173.201 184.924 172.595 184.924 171.937C184.924 170.976 184.578 170.185 183.876 169.565C183.179 168.945 182.074 168.637 180.561 168.637H174.117V175.364ZM189.69 186.722L197.515 166.388H200.417L208.754 186.722H205.681L203.305 180.562H194.788L192.554 186.722H189.69ZM195.566 178.37H202.475L200.346 172.741C199.701 171.033 199.217 169.626 198.904 168.523C198.643 169.83 198.278 171.122 197.804 172.41L195.566 178.37Z" fill="#0067A0"/>
  </g>
  <defs>
  <clipPath id="clip0_15_83">
  <rect width="215" height="187" fill="white"/>
  </clipPath>
  </defs>
  </svg>
  