<svg xmlns="http://www.w3.org/2000/svg" viewBox="0 0 511.03 512">
    <defs>
        <style>.cls-1{fill:#0069a2;}</style>
    </defs>
    <g id="Camada_2" data-name="Camada 2">
        <g id="Camada_1-2" data-name="Camada 1">
            <path 
                class="cls-1"
                d="M235.57,0h38.92c.57,1.15,1.68.86,2.62.94,43.77,3.67,84.14,17.49,120.31,42.37,61.74,42.5,98.95,100.88,110.85,175.22,1,6.15.73,12.48,2.76,18.47v40c-2.13,4.25-1.6,9-2.24,13.45-8,55.82-31.44,104.18-70.84,144.44q-60,61.33-145.06,74.37c-5.8.89-11.8.59-17.4,2.74H234.57c-.95-1.72-2.66-1-4-1.14-40.34-4.24-77.73-17-111.88-39a8.2,8.2,0,0,0-7.85-.9c-20,6.52-40.13,12.91-60.21,19.34L17,501.09c.74-2.36,1.22-3.91,1.73-5.44,9.38-28.07,18.71-56.16,28.25-84.18a10,10,0,0,0-1.37-10C6.93,344.83-7.2,282.41,3.42,214.78c8.46-53.92,32.56-100.37,71-139q57.21-57.58,137.31-72C219.65,2.35,227.8,2.35,235.57,0ZM338.78,399.23a59.15,59.15,0,0,0,22.07-3.48c36.85-13.16,47.91-31.24,48.67-64,.11-4.72-1.75-7.88-6-10-19.37-9.53-38.56-19.45-58.37-28-9.24-4-14.79-2.28-20.76,5.81-5.14,7-10.05,14.1-15.41,20.89-7.75,9.83-13.22,11-24.75,6.33C242,309.55,210.5,280.09,187,241.4c-4.58-7.56-4.44-10.68,1.3-17.48,5.26-6.23,10.86-12.17,16-18.45,5.07-6.13,6.13-12.61,2.67-20.36-7.31-16.4-13.89-33.12-20.73-49.72-7.36-17.85-8.75-18.85-28.2-18.26-8.81.27-17.22,2.2-24,8.37A79.14,79.14,0,0,0,117,147.37c-12.9,25-12.36,50.51-2.8,76.38,7.6,20.57,20,38.26,33,55.6,36,48.3,79.35,87.27,137.64,106.94C302.43,392.25,319.9,398.67,338.78,399.23Z" 
            />
        </g>
    </g>
</svg>