<svg width="300" height="200" viewBox="0 0 300 200" fill="none" xmlns="http://www.w3.org/2000/svg">
    <g clip-path="url(#clip0_112_5)">
        <path
            d="M81.4004 199.354C77.3104 199.034 73.2904 198.354 69.6704 196.274C67.0382 194.884 64.8077 192.84 63.1931 190.34C61.5784 187.839 60.634 184.965 60.4504 181.994C60.2704 179.794 60.2604 177.594 60.2404 175.404C60.1904 167.514 60.2404 159.634 60.1704 151.754C60.174 150.897 60.0869 150.042 59.9104 149.204C59.5802 147.55 58.6859 146.062 57.3804 144.994C57.9504 144.814 71.4804 144.744 72.9604 144.914C73.0504 145.144 72.8604 145.284 72.7704 145.444C72.0196 146.828 71.5698 148.354 71.4504 149.924C71.2904 151.634 71.2604 153.344 71.2504 155.064C71.2504 163.144 71.2504 171.224 71.2504 179.304C71.2416 180.984 71.4126 182.66 71.7604 184.304C71.9952 185.439 72.4585 186.515 73.1221 187.466C73.7857 188.416 74.6357 189.222 75.6204 189.834C77.517 191.008 79.6743 191.695 81.9004 191.834C84.3001 192.144 86.7392 191.855 89.0004 190.994C90.6551 190.35 92.1006 189.263 93.1784 187.852C94.2562 186.441 94.9246 184.76 95.1104 182.994C95.35 181.211 95.4703 179.413 95.4704 177.614C95.4704 169.414 95.5404 161.224 95.4704 153.024C95.4704 151.824 95.3604 150.634 95.2304 149.444C95.0899 147.844 94.5463 146.307 93.6504 144.974H109C109.07 145.084 109 145.144 108.92 145.184C108.021 145.856 107.285 146.722 106.766 147.717C106.246 148.713 105.958 149.812 105.92 150.934C105.79 152.384 105.76 153.844 105.76 155.294C105.76 162.894 105.85 170.494 105.76 178.084C105.786 180.783 105.45 183.474 104.76 186.084C103.651 189.906 101.215 193.207 97.8904 195.394C95.0917 197.289 91.8908 198.508 88.5404 198.954C88.0306 199.03 87.5134 199.043 87.0004 198.994C85.9204 198.894 84.8704 199.244 83.7904 199.214C83.7304 199.214 83.6504 199.304 83.5904 199.344L81.4004 199.354Z"
            fill="#0067A0" />
        <path
            d="M0.000366211 197.474C0.400366 197.534 0.410366 197.144 0.550366 196.954C3.7237 192.447 6.8737 187.937 10.0004 183.424C17.2004 173.137 24.3937 162.874 31.5804 152.634L32.2404 151.634C32.1004 151.344 31.8704 151.434 31.7004 151.434C27.2204 151.434 22.7004 151.354 18.2604 151.694C13.4105 152.06 8.68025 153.378 4.34037 155.574C4.11404 155.743 3.84951 155.853 3.57037 155.894C3.57294 155.639 3.65319 155.392 3.80037 155.184C5.26037 151.964 6.73037 148.754 8.17037 145.524C8.2345 145.301 8.37438 145.107 8.56598 144.975C8.75759 144.844 8.98896 144.783 9.22037 144.804C22.5537 144.804 35.887 144.804 49.2204 144.804C49.4465 144.764 49.6795 144.803 49.8804 144.914L18.1404 190.764C18.2704 191.044 18.4704 190.954 18.6204 190.954C23.3304 190.954 28.0404 191.024 32.7504 190.814C38.9359 190.636 44.9844 188.951 50.3704 185.904C50.4969 185.795 50.6542 185.729 50.8204 185.714C50.9304 185.934 50.7604 186.094 50.6804 186.264C49.1404 189.814 47.5704 193.364 46.0404 196.924C45.9784 197.135 45.8444 197.318 45.6617 197.44C45.479 197.563 45.2591 197.617 45.0404 197.594C30.1737 197.594 15.297 197.594 0.410366 197.594C0.270366 197.594 0.130366 197.594 0.0103662 197.664L0.000366211 197.474Z"
            fill="#0067A0" />
        <path
            d="M83.6304 199.354C83.6904 199.354 83.7704 199.224 83.8304 199.224C84.9104 199.224 85.9604 198.904 87.0404 199.004C86.6704 199.214 86.1704 199.004 85.8504 199.354H83.6304Z"
            fill="#0067A0" />
        <path
            d="M112.33 89.744C113.958 88.9149 115.671 88.2676 117.44 87.814C121.61 86.8239 125.885 86.3437 130.17 86.384C134.339 86.4269 138.499 86.7611 142.62 87.384C147.45 88.074 152.27 88.784 157.11 89.444C159.432 89.7389 161.77 89.8792 164.11 89.864C167.742 89.9466 171.339 89.1341 174.582 87.4982C177.826 85.8624 180.618 83.4535 182.71 80.484C185.509 76.6173 187.545 72.2528 188.71 67.624C188.87 67.054 188.86 67.044 188.26 66.884L186.85 66.534C186.797 66.5136 186.741 66.5041 186.684 66.5062C186.627 66.5082 186.571 66.5218 186.52 66.5462C186.468 66.5705 186.422 66.605 186.385 66.6476C186.347 66.6902 186.318 66.74 186.3 66.794C186.1 67.204 185.89 67.614 185.68 68.014C184.114 70.9435 182.022 73.5603 179.51 75.734C176.368 78.4577 172.494 80.1965 168.37 80.734C165.193 81.1237 161.985 81.2141 158.79 81.004C154.71 80.834 150.64 80.574 146.56 80.324C143.25 80.114 139.95 79.954 136.63 80.054C135.36 80.054 134.08 80.214 132.63 80.314L177.32 20.574C177.1 20.324 176.86 20.424 176.65 20.424C158.37 20.424 140.094 20.424 121.82 20.424C120.82 20.424 121.05 20.314 120.82 21.204C119.487 26.3374 118.154 31.4707 116.82 36.604C116.82 36.694 116.76 36.774 116.74 36.854C116.61 37.414 116.61 37.424 117.14 37.544L118.56 37.864C119.23 38.004 119.24 38.004 119.56 37.404C120.323 35.9687 121.207 34.6005 122.2 33.314C123.386 31.7248 124.885 30.3961 126.605 29.4105C128.325 28.4248 130.23 27.8031 132.2 27.584C135.781 27.1096 139.388 26.8624 143 26.844C146.46 26.844 149.91 26.844 153.37 26.844H154.12L109.13 85.994C93.0004 65.494 93.4504 32.624 116.59 12.334C122.084 7.81788 128.412 4.42791 135.216 2.35768C142.019 0.287446 149.164 -0.422503 156.241 0.268364C163.319 0.959232 170.191 3.03739 176.466 6.38418C182.74 9.73097 188.294 14.2808 192.81 19.774C197.327 25.2672 200.716 31.5962 202.787 38.3995C204.857 45.2028 205.567 52.3472 204.876 59.4249C204.185 66.5026 202.107 73.3749 198.76 79.6494C195.413 85.924 190.864 91.4779 185.37 95.994C161.65 114.244 129.63 109.214 112.33 89.744Z"
            fill="#0067A0" />
        <path
            d="M282.94 144.894H299.79C299.88 145.024 299.79 145.104 299.7 145.164C298.852 145.869 298.157 146.74 297.658 147.724C297.159 148.707 296.867 149.783 296.8 150.884C296.659 152.045 296.592 153.214 296.6 154.384C296.6 165.051 296.6 175.717 296.6 186.384C296.557 188.296 296.614 190.208 296.77 192.114C297.001 193.912 297.792 195.591 299.03 196.914L299.56 197.484C298.95 197.674 284.21 197.714 283.09 197.544C283.14 197.254 283.4 197.144 283.57 196.984C284.99 195.633 285.875 193.815 286.06 191.864C286.207 190.616 286.274 189.36 286.26 188.104C286.26 183.564 286.26 179.024 286.26 174.484C286.26 174.314 286.26 174.134 286.26 173.964C286.263 173.929 286.259 173.894 286.247 173.861C286.235 173.828 286.216 173.798 286.191 173.773C286.166 173.749 286.136 173.73 286.103 173.718C286.07 173.706 286.035 173.701 286 173.704H263.44C262.56 173.704 262.6 173.614 262.61 174.534C262.61 179.904 262.52 185.264 262.7 190.634C262.734 193.056 263.639 195.385 265.25 197.194C265.34 197.294 265.47 197.374 265.45 197.594H249.21C249.16 197.514 249.21 197.424 249.3 197.344C250.238 196.522 250.986 195.506 251.492 194.366C251.998 193.227 252.25 191.991 252.23 190.744C252.28 189.464 252.3 188.174 252.3 186.894C252.3 175.724 252.37 164.564 252.25 153.394C252.25 152.484 252.25 151.574 252.13 150.664C251.942 148.976 251.244 147.386 250.13 146.104C249.84 145.754 249.53 145.424 249.22 145.104C249.79 144.894 260.65 144.804 265.67 144.964C265.79 145.234 265.53 145.304 265.42 145.434C263.754 147.154 262.785 149.431 262.7 151.824C262.53 156.824 262.61 161.754 262.58 166.724C262.58 167.114 262.66 167.324 263.1 167.274C263.244 167.264 263.387 167.264 263.53 167.274H285.29C286.34 167.274 286.21 167.414 286.21 166.384C286.21 161.791 286.21 157.194 286.21 152.594C286.229 151.452 286.081 150.313 285.77 149.214C285.299 147.515 284.309 146.005 282.94 144.894Z"
            fill="#0067A0" />
        <path
            d="M118 144.864H118.47C123.92 144.864 129.38 144.864 134.83 144.864C137.545 144.856 140.257 145.023 142.95 145.364C146.372 145.748 149.623 147.062 152.35 149.164C154.717 150.914 156.398 153.436 157.1 156.294C157.632 158.397 157.607 160.603 157.026 162.693C156.446 164.783 155.331 166.686 153.79 168.214C152.102 169.924 150.108 171.301 147.91 172.274C146.582 172.894 145.216 173.428 143.82 173.874C150.82 182.044 157.49 190.504 165.82 197.404C165.75 197.624 165.59 197.564 165.46 197.554C162.46 197.554 159.35 197.554 156.3 197.484C154.165 197.436 152.085 196.788 150.3 195.614C148.184 194.149 146.265 192.418 144.59 190.464C141.87 187.464 139.29 184.254 136.67 181.124C135.15 179.314 133.67 177.484 132.12 175.674C131.94 175.464 131.75 175.264 131.57 175.064C131.35 175.224 131.43 175.404 131.43 175.564C131.43 180.044 131.43 184.564 131.43 189.014C131.43 190.014 131.5 191.014 131.6 192.014C131.769 193.79 132.525 195.458 133.75 196.754C133.94 196.964 134.11 197.194 134.28 197.414C134.28 197.414 134.28 197.414 134.28 197.534H118C118 197.224 118.24 197.124 118.39 196.984C119.2 196.258 119.848 195.37 120.294 194.378C120.74 193.386 120.974 192.312 120.98 191.224C120.98 190.364 120.98 189.504 120.98 188.654C120.98 177.287 120.98 165.924 120.98 154.564C121.002 153.192 120.949 151.82 120.82 150.454C120.625 148.477 119.715 146.638 118.26 145.284C118.191 145.235 118.133 145.172 118.088 145.1C118.044 145.028 118.014 144.948 118 144.864ZM131.43 160.614C131.43 163.614 131.43 166.714 131.43 169.774C131.43 170.414 131.43 170.414 132.09 170.434C133.433 170.438 134.773 170.311 136.09 170.054C138.325 169.704 140.459 168.883 142.35 167.644C143.664 166.822 144.707 165.633 145.35 164.224C145.908 163.001 146.207 161.676 146.228 160.332C146.248 158.988 145.99 157.654 145.47 156.414C144.967 155.239 144.19 154.202 143.203 153.39C142.217 152.577 141.05 152.013 139.8 151.744C137.317 151.083 134.749 150.793 132.18 150.884C131.43 150.884 131.43 150.884 131.43 151.624C131.45 154.624 131.46 157.614 131.46 160.614H131.43Z"
            fill="#0067A0" />
        <path
            d="M239.89 155.174C238.175 153.927 236.266 152.971 234.24 152.344C229.833 150.751 225.047 150.528 220.51 151.704C217.712 152.352 215.119 153.685 212.965 155.584C210.811 157.484 209.163 159.889 208.17 162.584C206.945 165.519 206.333 168.673 206.373 171.853C206.412 175.033 207.102 178.171 208.4 181.074C211.33 187.714 216.58 191.274 223.83 191.844C228.504 192.123 233.154 191.005 237.19 188.634C237.97 188.214 238.7 187.714 239.46 187.264C239.67 187.134 239.84 186.914 240.21 186.924V187.574C240.21 190.284 240.21 192.994 240.21 195.704C240.242 195.896 240.197 196.093 240.085 196.252C239.973 196.411 239.802 196.52 239.61 196.554C234.372 198.273 228.882 199.098 223.37 198.994C218.556 198.976 213.807 197.883 209.47 195.794C205.838 194.076 202.682 191.494 200.278 188.274C197.874 185.054 196.296 181.295 195.68 177.324C194.413 171.048 195.379 164.526 198.41 158.886C201.441 153.245 206.347 148.841 212.28 146.434C216.017 144.847 219.998 143.91 224.05 143.664C227.05 143.439 230.064 143.505 233.05 143.864C235.234 144.111 237.392 144.546 239.5 145.164C239.88 145.274 240.08 145.404 240.07 145.854C240.07 148.904 240.07 151.964 240.07 155.014C240 154.994 240 155.044 239.89 155.174Z"
            fill="#0067A0" />
        <path
            d="M187.11 144.914C186.638 145.306 186.199 145.737 185.8 146.204C184.809 147.469 184.204 148.993 184.06 150.594C183.96 151.594 183.91 152.644 183.91 153.674C183.91 165.607 183.91 177.537 183.91 189.464C183.91 190.663 184.051 191.858 184.33 193.024C184.687 194.589 185.485 196.019 186.63 197.144C186.73 197.244 186.87 197.314 186.87 197.524H170.54C170.54 197.204 170.8 197.074 170.97 196.904C172.336 195.464 173.193 193.617 173.41 191.644C173.539 190.713 173.602 189.774 173.6 188.834C173.6 177.414 173.6 165.997 173.6 154.584C173.634 153.013 173.547 151.442 173.34 149.884C173.08 148.086 172.165 146.448 170.77 145.284C170.66 145.194 170.53 145.134 170.5 144.914H187.11Z"
            fill="#0067A0" />
    </g>
    <defs>
        <clipPath id="clip0_112_5">
            <rect width="299.827" height="199.354" fill="white" />
        </clipPath>
    </defs>
</svg>
    